<?xml version="1.0" encoding="utf-8"?>
<!-- Generator: Adobe Illustrator 23.0.2, SVG Export Plug-In . SVG Version: 6.00 Build 0)  -->
<svg version="1.1" id="Layer_1" xmlns="http://www.w3.org/2000/svg" xmlns:xlink="http://www.w3.org/1999/xlink" x="0px" y="0px"
	 viewBox="0 0 170.08 141.73" style="enable-background:new 0 0 170.08 141.73;" xml:space="preserve">
<style type="text/css">
	.st0{fill:#f2f2f2;}
</style>
<g>
	<g>
		<path class="st0" d="M18.58,76.51c7.49,0,13.32,2.92,13.32,11.7c0,8.28-5.15,11.95-12.92,11.95H8.68v-1.08
			c3.17,0,3.53-0.47,3.53-3.38V80.62c0-2.63-0.83-3.02-3.53-3.02v-1.08H18.58z M15.52,98.69c0.72,0.07,1.4,0.11,2.12,0.11
			c6.55,0,10.47-2.16,10.47-10.26c0-6.84-3.38-10.55-10.83-10.55c-0.58,0-1.08,0-1.76,0.07V98.69z"/>
		<path class="st0" d="M44.65,97.93c-1.69,1.48-2.99,2.48-5.29,2.48c-2.77,0-4.28-1.73-4.28-4.03c0-4.75,6.37-5.69,9.47-6.66v-1.58
			c0-3.13-1.08-4.32-3.24-4.32c-2.05,0-2.41,0.76-2.41,2.92c0,1.12-0.58,1.66-1.58,1.66c-0.72,0-1.51-0.54-1.51-1.73
			c0-2.02,2.41-3.96,6.33-3.96c3.92,0,5.4,1.8,5.4,5.54v8.17c0,1.48,0.32,1.76,1.08,1.76c0.68,0,1.19-0.36,1.69-0.9l0.54,0.58
			c-1.19,1.73-2.05,2.48-3.89,2.48c-1.58,0-1.94-0.83-2.16-2.41H44.65z M44.54,90.91c-3.28,0.83-6.3,1.8-6.3,4.61
			c0,1.8,1.04,2.92,2.59,2.92c1.19,0,2.48-0.58,3.71-1.58V90.91z"/>
		<path class="st0" d="M57.57,86.52h0.11c1.84-2.66,2.92-3.92,4.64-3.92c1.4,0,2.09,0.79,2.09,2.02c0,1.37-0.79,1.94-1.58,1.94
			c-1.19,0-1.91-1.22-2.34-1.22c-0.83,0-1.98,1.51-2.84,2.95v8.21c0,2.27,0.68,2.63,3.38,2.63v1.04h-9v-1.04
			c2.38,0,2.63-0.43,2.63-2.45v-9.9c0-1.3,0-1.94-1.3-1.94c-0.72,0-1.12,0.07-1.12,0.07v-1.01l4.46-1.08h0.86V86.52z"/>
		<path class="st0" d="M80.29,95.52c-1.3,2.74-3.02,5-6.73,5c-4.32,0-7.67-3.13-7.67-8.93c0-6.01,3.38-8.89,7.6-8.89
			c3.92,0,6.52,2.84,6.7,7.88H68.8c0,4.97,2.74,7.23,5.62,7.23c2.92,0,4.03-1.3,5.18-2.81L80.29,95.52z M76.79,89.26
			c-0.11-2.66-1.3-5.11-3.85-5.11c-2.45,0-3.89,1.76-4.18,5.11H76.79z"/>
		<path class="st0" d="M108.8,84.18c-1.4,0-1.94,0.5-2.66,2.38l-5.36,13.82h-1.73L95.23,89.9h-0.14l-4.21,10.47h-1.66l-5.4-13.57
			c-0.94-2.23-1.48-2.63-3.06-2.63v-1.04h7.74v1.04c-1.44,0-1.91,0.32-1.91,0.9c0,0.47,0.18,0.86,0.4,1.4l3.13,7.96l0.65,2.09h0.25
			l0.76-2.09l2.59-6.55l-0.4-1.08c-0.86-2.34-1.4-2.63-2.99-2.63v-1.04h7.52v1.04c-1.37,0-1.8,0.32-1.8,0.9
			c0,0.43,0.14,0.94,0.32,1.48l2.92,7.88l0.65,2.09h0.22l0.72-2.09l2.84-8.06c0.04-0.18,0.22-0.68,0.22-1.3
			c0-0.68-0.68-0.9-2.02-0.9v-1.04h6.23V84.18z"/>
		<path class="st0" d="M117.58,100.16h-8.1v-1.01c2.41,0,2.52-0.58,2.52-2.63V86.48c0-1.55-0.54-1.69-1.58-1.69
			c-0.5,0-0.9,0.07-0.9,0.07v-1.04l4.54-1.01h0.94v13.71c0,2.09,0.18,2.63,2.59,2.63V100.16z M115.6,77.95
			c0,1.12-0.79,2.05-2.05,2.05c-1.22,0-2.05-0.94-2.05-2.05c0-1.08,0.79-2.02,2.05-2.02S115.6,76.87,115.6,77.95z"/>
		<path class="st0" d="M135.91,96.53c0,2.02,0.25,2.63,2.66,2.63v1.01h-8.31v-1.01c2.56,0,2.66-0.61,2.66-2.63v-6.52
			c0-4.32-1.69-5-3.31-5c-1.94,0-3.28,1.3-4.36,2.27v9.25c0,2.02,0.14,2.63,2.74,2.63v1.01h-8.24v-1.01c2.41,0,2.52-0.61,2.52-2.63
			V86.41c0-1.3-0.54-1.58-1.51-1.58c-0.61,0-0.97,0.07-0.97,0.07v-1.04l4.57-1.04h0.83l-0.04,2.92h0.14
			c1.94-1.73,3.53-3.02,5.79-3.02c3.28,0,4.82,2.27,4.82,6.41V96.53z"/>
		<path class="st0" d="M141.16,82.6c1.33-0.54,2.99-1.4,2.99-4.03c-0.43,0.18-0.72,0.22-1.12,0.22c-1.4,0-1.98-0.9-1.98-1.91
			c0-1.15,0.79-2.12,2.23-2.12c1.8,0,2.74,1.19,2.74,3.06c0,3.92-2.92,5.04-4.43,5.69L141.16,82.6z"/>
		<path class="st0" d="M150.49,94.26c0.76,3.71,2.12,4.97,4.79,4.97c1.8,0,3.1-0.68,3.1-2.38s-0.68-2.38-4.03-4.03
			c-3.28-1.66-4.75-2.92-4.75-5.58c0-2.95,2.41-4.54,5.51-4.54c1.8,0,2.88,0.5,3.78,0.94h0.04l0.61-0.76h0.72l0.11,5.51h-0.97
			c-0.79-3.42-2.12-4.46-4.32-4.46c-1.66,0-2.92,0.76-2.92,2.38c0,1.4,1.19,2.3,4.21,3.85c3.28,1.73,5.04,3.06,5.04,5.72
			c0,3.38-2.81,4.68-6.05,4.68c-2.09,0-3.17-0.54-4.1-0.94h-0.07l-0.76,0.83h-0.76l-0.11-6.19H150.49z"/>
		<path class="st0" d="M70.84,127.56c-1.94,2.92-4.93,5-9.65,5c-7.42,0-11.3-5.18-11.3-12.2c0-7.85,4.9-12.27,11.81-12.27
			c3.78,0,5.11,1.3,6.01,1.3c0.58,0,0.79-0.58,1.22-1.3h1.08v8.24h-1.22c-0.79-4.72-3.35-6.7-7.06-6.7c-5.18,0-8.1,3.96-8.1,10.37
			c0,7.2,3.53,10.29,8.6,10.29c3.31,0,5.72-1.3,7.74-3.49L70.84,127.56z"/>
		<path class="st0" d="M81.57,132.16h-8.28v-1.04c2.38,0,2.52-0.58,2.52-2.59v-18.07c0-1.48-0.61-1.55-1.51-1.55
			c-0.61,0-1.15,0.07-1.15,0.07v-0.97l4.75-1.26h0.9v21.78c0,2.09,0.18,2.59,2.77,2.59V132.16z"/>
		<path class="st0" d="M101.83,131.52l-4.57,0.83h-0.79v-2.77h-0.18c-1.91,1.87-3.6,2.95-5.9,2.95c-2.99,0-4.72-1.69-4.72-6.59
			v-7.31c0-1.94-0.5-2.09-2.45-2.12v-1.01l4.64-0.54h0.79v10.51c0,3.67,1.37,4.75,3.24,4.75c1.84,0,2.99-0.9,4.43-2.16v-9.47
			c0-1.91-0.61-2.09-2.92-2.09v-1.01l5.04-0.54h0.86v13.21c0,2.12,0.43,2.38,2.16,2.38h0.36V131.52z"/>
		<path class="st0" d="M108.78,117.77h0.11c1.26-1.51,3.13-3.06,5.54-3.06c3.56,0,6.01,3.31,6.01,7.99c0,6.44-3.64,9.83-8.64,9.83
			c-3.06,0-5.15-0.97-6.01-1.44v-20.23c0-1.62-0.22-1.91-1.58-1.91c-0.58,0-1.01,0.07-1.01,0.07v-1.01l4.64-1.26h0.94V117.77z
			 M108.78,129.36c0.68,0.83,1.76,1.69,3.67,1.69c3.42,0,4.72-3.2,4.72-7.2c0-3.46-0.9-6.7-4.32-6.7c-1.84,0-3.42,1.33-4.07,2.2
			V129.36z"/>
	</g>
	<g>
		<g>
			<path class="st0" d="M70.91,48.56l2.98-2.99c0.18-0.18,0.18-0.24,0-0.42l-1.46-1.46c-0.22-0.22-0.25-0.22-0.47,0l-1.29,1.29
				c-0.32,0.32-0.34,0.34-1.61,1.61c-0.16,0.16-0.2,0.26-0.19,0.36l1.74,1.74C70.72,48.7,70.81,48.66,70.91,48.56z"/>
			<path class="st0" d="M68.86,37.89l-1.5-1.5c-0.21-0.22-0.26-0.21-0.48,0l-1.22,1.22c-0.92,0.92-1.42,1.42-2.81,2.8
				c-0.15,0.15-0.19,0.25-0.18,0.36l1.73,1.73c0.13,0.03,0.19,0,0.26-0.07l4.2-4.2C68.99,38.1,68.99,38.02,68.86,37.89z"/>
			<path class="st0" d="M85.16,18.27l-1.13,1.13c-0.15,0.15-0.16,0.22-0.16,0.23c0,0.02,0.01,0.09,0.15,0.23l1.45,1.45
				c0.2,0.2,0.26,0.2,0.46,0l1.17-1.17c0.7-0.7,1.08-1.08,2.26-2.25c0.15-0.15,0.17-0.24,0.14-0.35l-1.7-1.7
				c-0.03-0.01-0.06-0.02-0.09-0.02c-0.08,0-0.15,0.04-0.26,0.15C86.26,17.18,85.88,17.56,85.16,18.27z"/>
			<path class="st0" d="M67.91,45.52c0.88-0.89,1.04-1.05,1.44-1.45l0.9-0.9c0.19-0.19,0.19-0.25-0.01-0.45l-1.47-1.47
				c-0.17-0.16-0.25-0.16-0.41,0l-0.87,0.87c-0.43,0.43-0.56,0.57-1.48,1.47c-0.14,0.14-0.18,0.24-0.16,0.34l1.73,1.73
				C67.68,45.68,67.77,45.66,67.91,45.52z"/>
			<path class="st0" d="M89.28,20.33l-0.81,0.81c-0.18,0.18-0.19,0.25,0,0.44l1.46,1.46c0.2,0.2,0.26,0.2,0.45,0.01l0.81-0.81
				c0.34-0.34,0.44-0.44,1.26-1.26c0.13-0.13,0.16-0.22,0.14-0.33l-1.73-1.73c-0.02,0-0.04,0-0.05,0c-0.09,0-0.17,0.04-0.29,0.16
				C89.71,19.9,89.61,20,89.28,20.33z"/>
			<path class="st0" d="M92.13,23.65c-0.16,0.16-0.13,0.25-0.01,0.37c0.51,0.52,1.03,1.04,1.55,1.55c0.14,0.13,0.22,0.13,0.35,0
				l0.46-0.46c0.34-0.34,0.68-0.69,1.03-1.02c0.16-0.15,0.19-0.25,0.17-0.36l-1.71-1.71c-0.03-0.01-0.06-0.01-0.08-0.01
				c-0.08,0-0.17,0.04-0.28,0.16c-0.32,0.34-0.65,0.66-0.98,0.99L92.13,23.65z"/>
			<path class="st0" d="M67.27,33.41c0.07,0.07,0.15,0.08,0.21,0.03c0.05-0.04,0.09-0.08,0.13-0.12l12.66-12.66
				c0.09-0.09,0.15-0.16-0.04-0.35l-1.46-1.46c-0.17-0.17-0.27-0.19-0.46-0.04L65.7,31.42c-0.06,0.06-0.09,0.09-0.12,0.13
				c-0.04,0.06-0.03,0.14,0.03,0.21C66.16,32.31,66.72,32.86,67.27,33.41z"/>
			<path class="st0" d="M71.41,41.57c0.12,0.12,0.21,0.12,0.33,0c0.18-0.18,0.36-0.36,0.54-0.54l0.52-0.52
				c0.18-0.18,0.36-0.36,0.54-0.54c0.15-0.15,0.06-0.25,0.02-0.29c-0.53-0.55-1.08-1.09-1.63-1.63c-0.04-0.04-0.09-0.07-0.14-0.07
				c-0.05,0-0.11,0.03-0.16,0.08c-0.53,0.53-1.06,1.06-1.59,1.59c-0.11,0.11-0.12,0.22,0,0.33C70.36,40.52,70.88,41.05,71.41,41.57z
				"/>
			<path class="st0" d="M73.29,30.11c-0.05,0-0.1,0.02-0.17,0.09l-1.58,1.58c-0.14,0.14-0.11,0.24-0.01,0.34
				c0.52,0.52,1.04,1.05,1.57,1.57c0.15,0.15,0.26,0.08,0.33,0.01c0.54-0.53,1.07-1.06,1.59-1.59c0.14-0.15,0.08-0.25,0.01-0.32
				c-0.53-0.54-1.06-1.08-1.61-1.61C73.39,30.14,73.34,30.11,73.29,30.11z"/>
			<path class="st0" d="M78.55,37.45c-0.04-0.04-0.14-0.14-0.3,0.02l-0.79,0.79l-0.27,0.26c-0.18,0.18-0.37,0.37-0.55,0.55
				c-0.07,0.07-0.12,0.18,0,0.3c0.53,0.54,1.07,1.08,1.61,1.61c0.13,0.13,0.24,0.05,0.3-0.01c0.54-0.53,1.08-1.07,1.61-1.61
				c0.14-0.14,0.07-0.24,0.01-0.3C79.64,38.52,79.1,37.98,78.55,37.45z"/>
			<path class="st0" d="M76.37,27.03c-0.05,0-0.1,0.03-0.17,0.09c-0.53,0.53-1.06,1.05-1.58,1.58c-0.12,0.12-0.12,0.21,0,0.34
				c0.52,0.52,1.04,1.05,1.57,1.57c0.12,0.12,0.21,0.12,0.33,0c0.19-0.18,0.37-0.37,0.56-0.55l1.04-1.04
				c0.14-0.14,0.09-0.24,0.01-0.32c-0.53-0.54-1.06-1.08-1.61-1.6C76.47,27.06,76.43,27.03,76.37,27.03z"/>
			<path class="st0" d="M77.08,42.45c0.1-0.11,0.1-0.21,0-0.32c-0.53-0.53-1.06-1.07-1.59-1.59c-0.04-0.04-0.09-0.08-0.15-0.08
				c-0.05,0-0.1,0.02-0.16,0.08c-0.18,0.18-0.36,0.36-0.55,0.54l-0.49,0.49c-0.19,0.19-0.38,0.38-0.57,0.57
				c-0.11,0.11-0.11,0.21,0,0.31c0.53,0.53,1.06,1.07,1.59,1.59c0.11,0.1,0.21,0.1,0.32,0C76.01,43.52,76.54,42.99,77.08,42.45z"/>
			<path class="st0" d="M79.44,23.96c-0.05,0-0.1,0.03-0.16,0.08l-1.59,1.59c-0.14,0.14-0.11,0.22-0.02,0.31
				c0.53,0.54,1.06,1.08,1.61,1.6c0.1,0.1,0.2,0.1,0.3,0c0.54-0.53,1.08-1.07,1.61-1.61c0.07-0.07,0.14-0.18-0.01-0.33
				c-0.52-0.52-1.04-1.05-1.57-1.57C79.54,23.99,79.49,23.96,79.44,23.96z"/>
			<path class="st0" d="M87.2,26.18c0.18-0.18,0.36-0.36,0.54-0.54l0.48-0.48c0.18-0.18,0.36-0.36,0.54-0.54
				c0.13-0.14,0.13-0.22,0-0.35l-1.54-1.54c-0.07-0.07-0.13-0.11-0.19-0.11c-0.06,0-0.11,0.03-0.18,0.1
				c-0.52,0.52-1.04,1.03-1.55,1.55c-0.14,0.14-0.14,0.23,0,0.37c0.51,0.52,1.02,1.03,1.54,1.54C86.99,26.31,87.06,26.31,87.2,26.18
				z"/>
			<path class="st0" d="M70.19,33.19c-0.06,0-0.11,0.04-0.18,0.1c-0.19,0.19-0.38,0.38-0.57,0.56l-0.97,0.98
				c-0.17,0.17-0.14,0.26-0.02,0.38c0.51,0.52,1.02,1.03,1.54,1.54c0.14,0.13,0.23,0.14,0.36,0c0.53-0.52,1.05-1.04,1.57-1.57
				c0.12-0.12,0.15-0.21-0.01-0.37c-0.51-0.51-1.02-1.02-1.53-1.53C70.31,33.22,70.25,33.19,70.19,33.19z"/>
			<path class="st0" d="M64.2,36.37c0.14,0.13,0.23,0.14,0.36,0c0.53-0.52,1.05-1.04,1.57-1.57c0.12-0.12,0.15-0.21-0.01-0.37
				l-1.53-1.53c-0.14-0.14-0.23-0.14-0.37,0c-0.17,0.17-0.35,0.34-0.52,0.52l-0.26,0.26l-0.76,0.76c-0.17,0.17-0.14,0.26-0.02,0.38
				C63.17,35.34,63.68,35.86,64.2,36.37z"/>
			<path class="st0" d="M63.16,37.39l-1.53-1.53c-0.14-0.14-0.23-0.14-0.37,0c-0.17,0.17-0.35,0.34-0.52,0.52l-0.26,0.26l-0.76,0.76
				c-0.17,0.17-0.14,0.26-0.02,0.38c0.51,0.52,1.02,1.03,1.54,1.54c0.14,0.14,0.23,0.14,0.36,0c0.53-0.52,1.05-1.04,1.57-1.57
				C63.29,37.64,63.32,37.55,63.16,37.39z"/>
			<path class="st0" d="M84.33,16.24c0.14,0.14,0.23,0.14,0.36,0c0.53-0.52,1.05-1.04,1.57-1.57c0.12-0.12,0.15-0.21-0.01-0.37
				c-0.51-0.51-1.02-1.02-1.53-1.53c-0.07-0.07-0.13-0.11-0.19-0.11c-0.06,0-0.11,0.04-0.18,0.1c-0.19,0.19-0.38,0.38-0.57,0.56
				l-0.97,0.98c-0.17,0.17-0.14,0.26-0.02,0.38C83.3,15.21,83.81,15.73,84.33,16.24z"/>
			<path class="st0" d="M81.37,19.2c0.14,0.13,0.23,0.14,0.36,0c0.53-0.52,1.05-1.04,1.57-1.57c0.12-0.12,0.15-0.21-0.01-0.37
				c-0.51-0.51-1.02-1.02-1.53-1.53c-0.07-0.07-0.13-0.11-0.19-0.11c-0.06,0-0.11,0.04-0.18,0.1c-0.19,0.19-0.38,0.38-0.57,0.56
				l-0.97,0.98c-0.17,0.17-0.14,0.26-0.02,0.38C80.34,18.17,80.85,18.68,81.37,19.2z"/>
			<path class="st0" d="M89.43,29.83c-0.53-0.53-1.05-1.06-1.58-1.58c-0.12-0.12-0.2-0.12-0.32,0c-0.18,0.18-0.36,0.35-0.53,0.53
				l-0.27,0.27l-0.26,0.26c-0.18,0.17-0.35,0.35-0.52,0.53c-0.12,0.12-0.12,0.2,0,0.32c0.52,0.53,1.05,1.06,1.58,1.58
				c0.16,0.16,0.26,0.07,0.3,0.02c0.55-0.54,1.1-1.08,1.63-1.63C89.49,30.09,89.58,29.99,89.43,29.83z"/>
			<path class="st0" d="M81.65,34.38c-0.04-0.04-0.09-0.07-0.14-0.07c-0.05,0-0.1,0.02-0.17,0.09c-0.53,0.53-1.06,1.05-1.58,1.58
				c-0.12,0.12-0.12,0.22,0,0.34c0.52,0.52,1.04,1.04,1.56,1.56c0.14,0.14,0.22,0.14,0.35,0c0.18-0.18,0.36-0.36,0.54-0.54l0.5-0.5
				c0.18-0.18,0.35-0.35,0.53-0.53c0.13-0.14,0.1-0.22,0.01-0.31C82.72,35.45,82.19,34.91,81.65,34.38z"/>
			<path class="st0" d="M77.92,35.42c0.54-0.53,1.07-1.06,1.59-1.59c0.1-0.1,0.13-0.19-0.01-0.33c-0.19-0.19-0.37-0.38-0.56-0.56
				l-1-1c-0.07-0.07-0.12-0.1-0.17-0.1c-0.05,0-0.1,0.03-0.17,0.1c-0.53,0.52-1.06,1.05-1.58,1.58c-0.13,0.13-0.13,0.21,0,0.33
				l1.56,1.56C77.73,35.55,77.82,35.53,77.92,35.42z"/>
			<path class="st0" d="M90.93,25.17c-0.06-0.06-0.11-0.08-0.16-0.08c-0.05,0-0.1,0.03-0.17,0.09l-1.58,1.58
				c-0.14,0.14-0.11,0.23-0.02,0.32c0.53,0.54,1.06,1.07,1.59,1.59c0.11,0.11,0.2,0.11,0.31,0c0.53-0.53,1.07-1.06,1.6-1.6
				c0.12-0.12,0.12-0.21,0-0.33C91.99,26.22,91.46,25.69,90.93,25.17z"/>
			<path class="st0" d="M76.43,36.59c-0.53-0.54-1.06-1.07-1.59-1.59c-0.06-0.06-0.11-0.08-0.16-0.08c-0.06,0-0.11,0.04-0.14,0.07
				c-0.55,0.53-1.09,1.07-1.62,1.62c-0.07,0.07-0.13,0.17,0.02,0.32l1.58,1.58c0.11,0.11,0.21,0.11,0.31,0.01
				c0.54-0.53,1.08-1.07,1.61-1.61C76.54,36.78,76.54,36.7,76.43,36.59z"/>
			<path class="st0" d="M81.02,32.34c0.53-0.52,1.06-1.05,1.58-1.58c0.12-0.12,0.12-0.21,0.01-0.33c-0.52-0.53-1.05-1.06-1.58-1.58
				c-0.06-0.06-0.11-0.09-0.16-0.09c-0.05,0-0.1,0.03-0.16,0.09l-1.6,1.6c-0.14,0.14-0.09,0.23-0.01,0.31
				c0.53,0.53,1.06,1.07,1.59,1.59C80.79,32.44,80.88,32.48,81.02,32.34z"/>
			<path class="st0" d="M84.1,29.27c0.53-0.53,1.07-1.06,1.6-1.6c0.12-0.12,0.12-0.21,0-0.33l-1.57-1.57
				c-0.07-0.07-0.13-0.1-0.18-0.1c-0.06,0-0.11,0.03-0.16,0.09c-0.53,0.53-1.06,1.05-1.58,1.58c-0.14,0.14-0.1,0.23-0.01,0.33
				c0.53,0.54,1.06,1.07,1.59,1.59C83.88,29.37,83.97,29.4,84.1,29.27z"/>
			<path class="st0" d="M84.74,31.31c-0.06-0.06-0.11-0.08-0.16-0.08c-0.06,0-0.1,0.03-0.14,0.07c-0.55,0.53-1.09,1.07-1.62,1.62
				c-0.09,0.09-0.12,0.18,0.01,0.32c0.19,0.2,0.39,0.39,0.58,0.58l0.41,0.41c0.19,0.19,0.39,0.39,0.58,0.58
				c0.13,0.13,0.22,0.1,0.31,0.01c0.54-0.53,1.08-1.07,1.61-1.61c0.11-0.11,0.11-0.2,0-0.31C85.81,32.37,85.28,31.84,84.74,31.31z"
				/>
			<path class="st0" d="M84.28,22.86c0.1-0.1,0.13-0.18-0.01-0.33l-1.02-1.03c-0.18-0.19-0.37-0.37-0.56-0.55
				c-0.05-0.05-0.11-0.08-0.16-0.08c-0.05,0-0.1,0.02-0.14,0.07c-0.55,0.54-1.08,1.08-1.62,1.62c-0.15,0.15-0.04,0.25-0.01,0.29
				c0.54,0.55,1.08,1.1,1.63,1.63c0.06,0.06,0.15,0.12,0.28-0.02C83.21,23.94,83.75,23.4,84.28,22.86z"/>
			<path class="st0" d="M87.86,10.3c-0.73-0.73-1.69-1.13-2.72-1.13s-1.99,0.4-2.72,1.13L57.23,35.49c-1.5,1.5-1.5,3.94,0,5.43
				l25.19,25.19c0.73,0.73,1.69,1.13,2.72,1.13s1.99-0.4,2.72-1.13l25.19-25.19c1.5-1.5,1.5-3.94,0-5.43L87.86,10.3z M74.74,52.82
				c-0.02-0.12,0.01-0.22,0.17-0.36c0.35-0.33,0.69-0.67,1.03-1.02l0.45-0.46c0.14-0.14,0.22-0.14,0.35,0
				c0.52,0.51,1.04,1.03,1.55,1.55c0.12,0.12,0.15,0.21-0.01,0.37l-0.49,0.49c-0.33,0.33-0.66,0.66-0.98,0.99
				c-0.15,0.16-0.25,0.18-0.36,0.15L74.74,52.82z M110.69,39.15l-1.01,1.01c-0.18,0.18-0.35,0.36-0.53,0.53
				c-0.14,0.14-0.23,0.14-0.37,0l-1.53-1.53c-0.16-0.16-0.13-0.25-0.01-0.37c0.52-0.53,1.04-1.05,1.57-1.57
				c0.07-0.06,0.12-0.1,0.18-0.1c0.06,0,0.11,0.03,0.18,0.1c0.52,0.51,1.03,1.02,1.54,1.54C110.83,38.9,110.86,38.98,110.69,39.15z
				 M102.78,43.25c0.05-0.05,0.09-0.09,0.14-0.13c0.06-0.05,0.14-0.04,0.21,0.03c0.56,0.55,1.11,1.1,1.66,1.66
				c0.06,0.06,0.07,0.15,0.03,0.21c-0.03,0.04-0.06,0.07-0.12,0.13L92.09,57.75c-0.18,0.15-0.29,0.13-0.46-0.04l-1.46-1.46
				c-0.19-0.19-0.13-0.26-0.04-0.35L102.78,43.25z M95.74,37.97c0.05,0,0.1,0.03,0.16,0.09l1.58,1.58c0.15,0.15,0.08,0.25,0.02,0.32
				c-0.53,0.55-1.07,1.09-1.62,1.62c-0.07,0.07-0.17,0.13-0.3-0.01c-0.53-0.53-1.07-1.06-1.59-1.59c-0.11-0.11-0.11-0.2,0-0.31
				c0.53-0.54,1.07-1.08,1.61-1.61C95.64,38,95.69,37.97,95.74,37.97z M92.3,47.53l1.04-1.04c0.18-0.19,0.37-0.37,0.56-0.55
				c0.06-0.06,0.11-0.08,0.16-0.08c0.05,0,0.11,0.03,0.17,0.09c0.52,0.52,1.05,1.04,1.57,1.57c0.12,0.13,0.12,0.22,0,0.34
				c-0.53,0.53-1.05,1.06-1.58,1.58c-0.15,0.14-0.24,0.09-0.31,0.02c-0.54-0.53-1.08-1.06-1.61-1.6
				C92.21,47.76,92.16,47.67,92.3,47.53z M89.23,50.61c0.53-0.54,1.07-1.08,1.61-1.61c0.05-0.05,0.1-0.08,0.15-0.08
				c0.05,0,0.1,0.02,0.15,0.08c0.54,0.53,1.08,1.06,1.61,1.61c0.09,0.09,0.12,0.18-0.02,0.31l-1.59,1.59
				c-0.12,0.11-0.21,0.11-0.33,0c-0.52-0.52-1.05-1.04-1.57-1.57C89.09,50.79,89.16,50.68,89.23,50.61z M86.13,53.69
				c0.53-0.54,1.07-1.07,1.61-1.61C87.8,52.02,87.85,52,87.9,52c0.05,0,0.09,0.03,0.13,0.07c0.55,0.54,1.1,1.08,1.63,1.63
				c0.03,0.03,0.14,0.14-0.01,0.29c-0.54,0.54-1.08,1.08-1.62,1.62c-0.1,0.1-0.2,0.09-0.3-0.01c-0.19-0.18-0.37-0.37-0.56-0.55
				l-1.02-1.03C86,53.87,86.03,53.79,86.13,53.69z M98.88,44.77l-1.58,1.58c-0.15,0.14-0.24,0.09-0.31,0.02
				c-0.54-0.53-1.08-1.06-1.61-1.61c-0.07-0.07-0.13-0.17,0.01-0.32c0.53-0.53,1.06-1.07,1.59-1.59c0.04-0.04,0.09-0.08,0.16-0.08
				c0.05,0,0.11,0.02,0.17,0.09c0.52,0.52,1.05,1.04,1.57,1.57C98.99,44.53,99.02,44.62,98.88,44.77z M92.64,41.05
				c0.05,0,0.11,0.03,0.19,0.1l1.56,1.56c0.13,0.13,0.13,0.21,0,0.33c-0.53,0.53-1.05,1.06-1.58,1.58c-0.13,0.13-0.2,0.13-0.34,0
				l-1-1c-0.19-0.19-0.38-0.37-0.56-0.56c-0.14-0.14-0.11-0.23-0.01-0.33c0.52-0.54,1.06-1.07,1.59-1.59
				C92.54,41.08,92.59,41.05,92.64,41.05z M91.3,46.11l-1.6,1.6c-0.12,0.12-0.2,0.12-0.32,0c-0.53-0.52-1.06-1.05-1.58-1.58
				c-0.11-0.11-0.11-0.21,0.01-0.33c0.53-0.53,1.05-1.06,1.58-1.58c0.06-0.06,0.12-0.09,0.17-0.09c0.06,0,0.11,0.03,0.16,0.08
				c0.53,0.53,1.07,1.06,1.59,1.6C91.4,45.89,91.43,45.98,91.3,46.11z M88.21,49.2c-0.53,0.53-1.05,1.06-1.58,1.58
				c-0.11,0.11-0.19,0.14-0.34-0.01l-1.57-1.57c-0.12-0.12-0.12-0.21,0-0.33c0.53-0.53,1.06-1.07,1.6-1.6
				c0.06-0.06,0.11-0.09,0.16-0.09c0.05,0,0.1,0.03,0.15,0.08c0.54,0.53,1.07,1.06,1.59,1.59C88.31,48.97,88.35,49.06,88.21,49.2z
				 M85.11,52.29c-0.52,0.52-1.03,1.04-1.55,1.55c-0.14,0.14-0.23,0.14-0.37,0l-1.54-1.54c-0.13-0.13-0.13-0.22,0-0.35
				c0.18-0.18,0.36-0.36,0.54-0.54l0.49-0.49c0.18-0.18,0.35-0.36,0.53-0.53c0.07-0.07,0.12-0.1,0.18-0.1s0.11,0.03,0.18,0.1
				c0.52,0.51,1.03,1.02,1.54,1.54C85.25,52.06,85.25,52.15,85.11,52.29z M101.94,41.72l-0.97,0.98c-0.19,0.19-0.38,0.38-0.57,0.56
				c-0.14,0.14-0.23,0.14-0.37,0c-0.51-0.51-1.02-1.02-1.53-1.53c-0.16-0.16-0.13-0.25-0.01-0.37c0.52-0.53,1.04-1.05,1.57-1.57
				c0.07-0.06,0.12-0.1,0.18-0.1c0.06,0,0.11,0.03,0.18,0.1c0.52,0.51,1.03,1.02,1.54,1.54C102.08,41.46,102.11,41.55,101.94,41.72z
				 M98.68,38.5c-0.55-0.54-1.09-1.08-1.63-1.63c-0.04-0.04-0.13-0.14,0.02-0.29c0.18-0.18,0.36-0.36,0.54-0.54l0.27-0.27l0.24-0.24
				c0.18-0.18,0.36-0.36,0.54-0.54c0.12-0.11,0.21-0.11,0.33,0c0.53,0.52,1.06,1.05,1.58,1.58c0.11,0.11,0.11,0.21,0,0.33
				c-0.53,0.53-1.06,1.06-1.59,1.59C98.87,38.59,98.77,38.59,98.68,38.5z M87.11,58.92c0.52-0.53,1.04-1.05,1.57-1.57
				c0.07-0.06,0.12-0.1,0.18-0.1c0.06,0,0.11,0.03,0.18,0.1c0.52,0.51,1.03,1.02,1.54,1.54c0.12,0.13,0.15,0.21-0.02,0.38
				l-0.97,0.98c-0.19,0.19-0.38,0.38-0.57,0.56c-0.14,0.14-0.23,0.14-0.37,0c-0.51-0.51-1.02-1.02-1.53-1.53
				C86.96,59.13,86.99,59.04,87.11,58.92z M104.29,41.75c0.52-0.53,1.04-1.05,1.57-1.57c0.07-0.06,0.12-0.1,0.18-0.1
				c0.06,0,0.11,0.03,0.18,0.1c0.52,0.51,1.03,1.02,1.54,1.54c0.12,0.13,0.15,0.21-0.02,0.38l-1.02,1.02
				c-0.17,0.17-0.34,0.34-0.52,0.52c-0.14,0.14-0.23,0.14-0.37,0l-1.53-1.53C104.14,41.96,104.17,41.87,104.29,41.75z M77.96,55.58
				c0.82-0.81,0.93-0.92,1.26-1.26l0.81-0.81c0.19-0.19,0.25-0.19,0.45,0.01l1.46,1.46c0.18,0.18,0.18,0.25,0,0.44l-0.79,0.79
				c-0.35,0.35-0.44,0.44-1.26,1.27c-0.14,0.15-0.24,0.18-0.34,0.16l-1.73-1.73C77.8,55.8,77.83,55.71,77.96,55.58z M81.06,58.66
				c1.18-1.17,1.56-1.55,2.26-2.25l1.17-1.17c0.2-0.2,0.26-0.2,0.46,0l1.45,1.45c0.2,0.2,0.2,0.25-0.01,0.46l-1.13,1.13
				c-0.72,0.72-1.1,1.1-2.28,2.29c-0.15,0.15-0.24,0.17-0.35,0.13l-1.7-1.7C80.89,58.9,80.91,58.8,81.06,58.66z M84.16,61.88
				c0.52-0.53,1.04-1.05,1.57-1.57c0.07-0.06,0.12-0.1,0.18-0.1c0.06,0,0.11,0.03,0.18,0.1c0.52,0.51,1.03,1.02,1.54,1.54
				c0.12,0.13,0.15,0.21-0.02,0.38l-0.97,0.98c-0.19,0.19-0.38,0.38-0.57,0.56c-0.14,0.14-0.23,0.14-0.37,0
				c-0.51-0.51-1.02-1.02-1.53-1.53C84.01,62.09,84.04,62,84.16,61.88z M107.55,36.15c-1.39,1.38-1.89,1.88-2.81,2.8l-1.22,1.22
				c-0.15,0.15-0.22,0.16-0.24,0.16c-0.02,0-0.09-0.01-0.24-0.16l-1.5-1.5c-0.13-0.13-0.13-0.21,0-0.34l4.2-4.2
				c0.05-0.05,0.1-0.08,0.17-0.08c0.02,0,0.05,0,0.09,0.01l1.73,1.73C107.74,35.89,107.7,35.99,107.55,36.15z M104.4,32.96
				c-0.91,0.9-1.06,1.05-1.48,1.47l-0.87,0.87c-0.17,0.17-0.25,0.17-0.41,0l-1.47-1.47c-0.2-0.2-0.2-0.26-0.01-0.45l0.9-0.9
				c0.4-0.4,0.56-0.56,1.44-1.45c0.11-0.11,0.19-0.15,0.27-0.15c0.02,0,0.04,0,0.06,0.01l1.73,1.73
				C104.58,32.72,104.55,32.82,104.4,32.96z M101.36,29.97c-1.27,1.26-1.3,1.29-1.61,1.61l-1.29,1.29c-0.22,0.22-0.26,0.22-0.47,0
				l-1.46-1.46c-0.18-0.18-0.18-0.24,0-0.42L99.5,28c0.09-0.09,0.17-0.13,0.26-0.13c0.01,0,0.03,0,0.04,0l1.74,1.74
				C101.56,29.71,101.52,29.81,101.36,29.97z M96.85,34.41c-0.19,0.19-0.38,0.38-0.57,0.57l-1.03,1.03c-0.14,0.14-0.25,0.07-0.32,0
				c-0.54-0.53-1.07-1.06-1.59-1.59c-0.1-0.11-0.1-0.21,0-0.32c0.53-0.54,1.07-1.07,1.6-1.61c0.05-0.05,0.11-0.08,0.16-0.08
				s0.11,0.03,0.16,0.08c0.53,0.53,1.06,1.06,1.59,1.59C96.96,34.2,96.96,34.29,96.85,34.41z M93.76,37.48
				c-0.18,0.19-0.37,0.37-0.55,0.55l-1.06,1.05c-0.16,0.16-0.26,0.06-0.3,0.02c-0.55-0.53-1.09-1.07-1.62-1.62
				c-0.06-0.06-0.13-0.16,0.01-0.3c0.54-0.54,1.07-1.08,1.61-1.61c0.03-0.03,0.09-0.08,0.16-0.08c0.04,0,0.09,0.02,0.14,0.07
				c0.54,0.53,1.08,1.07,1.61,1.61C93.89,37.3,93.83,37.41,93.76,37.48z M90.66,40.58c-0.53,0.53-1.05,1.06-1.58,1.58
				c-0.14,0.14-0.24,0.09-0.31,0.02c-0.54-0.53-1.08-1.06-1.61-1.61c-0.09-0.09-0.12-0.18,0.01-0.31c0.18-0.19,0.37-0.37,0.55-0.56
				l0.48-0.48c0.18-0.18,0.36-0.36,0.54-0.54c0.07-0.07,0.12-0.1,0.18-0.1c0.05,0,0.11,0.03,0.18,0.1c0.52,0.52,1.04,1.04,1.56,1.56
				C90.78,40.36,90.78,40.46,90.66,40.58z M87.59,43.63c-0.53,0.55-1.07,1.09-1.62,1.62c-0.08,0.07-0.17,0.13-0.3-0.01
				c-0.53-0.53-1.07-1.06-1.59-1.59c-0.11-0.11-0.11-0.2,0-0.31c0.53-0.54,1.07-1.08,1.61-1.61c0.05-0.05,0.1-0.08,0.15-0.08
				c0.05,0,0.1,0.03,0.16,0.09c0.2,0.19,0.39,0.39,0.58,0.58l0.41,0.41c0.19,0.19,0.39,0.39,0.58,0.58
				C87.71,43.45,87.67,43.54,87.59,43.63z M84.48,46.72c-0.17,0.18-0.35,0.35-0.52,0.53l-0.53,0.53c-0.18,0.18-0.36,0.36-0.53,0.53
				c-0.12,0.12-0.2,0.12-0.32,0c-0.53-0.53-1.06-1.05-1.58-1.58c-0.16-0.16-0.06-0.26-0.02-0.3c0.54-0.55,1.08-1.1,1.63-1.63
				c0.03-0.03,0.07-0.07,0.13-0.07c0.05,0,0.1,0.02,0.17,0.09c0.53,0.52,1.06,1.05,1.58,1.58C84.6,46.52,84.6,46.6,84.48,46.72z
				 M81.39,49.8l-1.58,1.58c-0.12,0.12-0.21,0.12-0.32,0c-0.53-0.53-1.06-1.05-1.58-1.58c-0.11-0.11-0.11-0.21,0-0.33
				c0.53-0.53,1.06-1.07,1.6-1.6c0.05-0.05,0.11-0.08,0.16-0.08s0.1,0.03,0.16,0.08c0.53,0.53,1.07,1.06,1.59,1.59
				C81.5,49.58,81.53,49.66,81.39,49.8z M99.63,23.48L70.41,52.69L57.94,40.22c-1.11-1.11-1.11-2.91,0-4.02l25.19-25.19
				c0.55-0.55,1.28-0.83,2.01-0.83s1.45,0.28,2.01,0.83L99.63,23.48z"/>
		</g>
	</g>
</g>
</svg>
