<svg width="15" height="18" viewBox="0 0 15 18" fill="none" xmlns="http://www.w3.org/2000/svg">
<path fill-rule="evenodd" clip-rule="evenodd" d="M3.91211 14.6854V17.4375H7.84766C9.1237 17.4245 10.2402 17.1478 11.1973 16.6074C12.1608 16.0671 12.8997 15.2923 13.4141 14.2832C13.9349 13.2741 14.1953 12.099 14.1953 10.7578V9.84961C14.1888 8.54102 13.9251 7.38216 13.4043 6.37305C12.89 5.36393 12.1576 4.58594 11.207 4.03906C10.2565 3.49219 9.16276 3.21875 7.92578 3.21875H3.91211V12.174C4.87481 12.0787 5.4029 11.8422 5.78711 11.5735V4.76172H7.97461C9.36784 4.77474 10.4421 5.23047 11.1973 6.12891C11.959 7.02083 12.3398 8.27409 12.3398 9.88867V10.7188C12.3398 12.3789 11.9362 13.6582 11.1289 14.5566C10.3281 15.4551 9.20508 15.9043 7.75977 15.9043H5.78711V14.4861C5.13226 14.597 4.44847 14.655 3.91211 14.6854Z" fill="black"/>
<path fill-rule="evenodd" clip-rule="evenodd" d="M0 0V14.2188H3.93555C5.21159 14.2057 6.32812 13.929 7.28516 13.3887C8.2487 12.8483 8.98763 12.0736 9.50195 11.0645C10.0228 10.0553 10.2832 8.88021 10.2832 7.53906V6.63086C10.2825 6.4859 10.2786 6.34277 10.2716 6.20149C9.81299 5.88198 9.13495 5.49993 8.32596 5.32085C8.39381 5.73836 8.42773 6.18805 8.42773 6.66992V7.5C8.42773 9.16016 8.02409 10.4395 7.2168 11.3379C6.41602 12.2363 5.29297 12.6855 3.84766 12.6855H1.875V1.54297H4.0625C5.04714 1.55217 5.87244 1.78249 6.5384 2.23393C7.17878 2.25955 8.20564 2.32816 9.11435 2.51188C8.63932 1.80873 8.03285 1.24487 7.29492 0.820312C6.3444 0.273438 5.25065 0 4.01367 0H0Z" fill="black"/>
</svg>
