<svg width="41" height="25" viewBox="0 0 41 25" fill="none" xmlns="http://www.w3.org/2000/svg">
<path d="M24.9925 12.4999C24.9925 19.4049 19.3988 24.9999 12.4962 24.9999C5.59368 24.9999 0 19.4037 0 12.4999C0 5.59615 5.59506 0 12.4962 0C19.3974 0 24.9925 5.59615 24.9925 12.4999Z" fill="#E2574C"/>
<path d="M27.5039 0C24.7013 0 22.1213 0.933766 20.0363 2.49256L20.0464 2.49379C20.4564 2.89 20.9088 3.16885 21.2576 3.62497L18.6576 3.66624C18.2501 4.07753 17.8789 4.52501 17.5288 4.99005H22.1138C22.4625 5.40874 22.785 5.77259 23.0776 6.23502H16.6976C16.4639 6.63754 16.2477 7.0513 16.0589 7.48123H23.8039C24.0064 7.90993 24.1876 8.23376 24.3415 8.68754H15.6002C15.4614 9.11885 15.3427 9.56003 15.2526 10.01H24.7076C24.8002 10.4425 24.8713 10.8424 24.9201 11.25H15.0651C15.0238 11.6613 15.0026 12.0788 15.0026 12.5001H24.9913C24.9913 12.9426 24.96 13.3525 24.9151 13.7501H15.0651C15.1076 14.1739 15.1701 14.5901 15.2526 15.0002H24.6926C24.5951 15.4051 24.4825 15.8126 24.3413 16.2351H15.5714C15.7038 16.6626 15.8652 17.0776 16.0413 17.4826H23.8039C23.5889 17.9376 23.3452 18.3013 23.0765 18.7276H16.6753C16.9278 19.165 17.2065 19.5825 17.509 19.9825L22.1139 20.0512C21.7214 20.5224 21.2177 20.8062 20.7588 21.2187C20.7838 21.2388 20.0251 21.2163 18.5313 21.1925C20.8038 23.5376 23.9801 25 27.5037 25C34.4075 25 40.0037 19.4037 40.0037 12.5001C40.0037 5.59643 34.4087 0 27.5039 0Z" fill="#F4B459"/>
</svg>
