<svg width="21" height="25" viewBox="0 0 21 25" fill="none" xmlns="http://www.w3.org/2000/svg">
<g clip-path="url(#clip0)">
<path d="M19.0829 6.41023C19.4034 4.48719 19.0829 3.12501 18.0413 1.92304C16.9194 0.641014 14.756 0 12.1118 0H4.33934C3.77839 0 3.29767 0.400656 3.21753 0.961522L0.0123666 21.4743C-0.0677821 21.875 0.252725 22.2756 0.653381 22.2756H5.46108L5.14057 24.359C5.06042 24.6795 5.38093 25 5.70143 25H9.70782C10.1886 25 10.5892 24.6795 10.6693 24.1987V23.9583L11.4707 19.1506L11.5508 18.9103C11.6309 18.4295 12.0316 18.109 12.5123 18.109H13.1533C17.0796 18.109 20.1245 16.5064 21.0059 11.9391C21.4065 10.016 21.1662 8.41342 20.2046 7.29169C19.8842 6.89104 19.4835 6.65059 19.0829 6.41023Z" fill="#26A6D1"/>
<path d="M19.0829 6.41023C19.4034 4.48719 19.0829 3.12501 18.0413 1.92304C16.9195 0.641014 14.756 0 12.1118 0H4.33935C3.77839 0 3.29768 0.400656 3.21753 0.961522L0.0123666 21.4743C-0.0677822 21.875 0.252725 22.2756 0.653381 22.2756H5.46108L6.66296 14.6634V14.9038C6.74311 14.3429 7.22382 13.9423 7.78478 13.9423H10.0283C14.5155 13.9423 18.0411 12.0993 19.0027 6.89104C19.0028 6.73074 19.0829 6.57053 19.0829 6.41023Z" fill="#324D5B"/>
<path d="M7.94507 6.41023C8.02522 6.08972 8.18543 5.84937 8.50594 5.68907C8.66624 5.60892 8.7463 5.60892 8.90659 5.60892H14.9963C15.7175 5.60892 16.3585 5.68907 16.9995 5.76922C17.1598 5.76922 17.32 5.84937 17.4803 5.84937C17.6406 5.84937 17.8008 5.92952 17.9611 6.00966C18.0413 6.00966 18.1214 6.08981 18.2015 6.08981C18.522 6.16996 18.7623 6.33017 19.0828 6.41032C19.4034 4.48728 19.0829 3.1251 18.0412 1.92313C16.9194 0.641014 14.756 0 12.1118 0H4.33934C3.77839 0 3.29767 0.400656 3.21753 0.961522L0.0123666 21.4743C-0.0677821 21.875 0.252725 22.2756 0.653381 22.2756H5.46108L6.66296 14.6634L7.94507 6.41023Z" fill="#324D5B"/>
</g>
<defs>
<clipPath id="clip0">
<rect width="21" height="25" fill="white"/>
</clipPath>
</defs>
</svg>
