<svg width="58" height="25" viewBox="0 0 58 25" fill="none" xmlns="http://www.w3.org/2000/svg">
<g clip-path="url(#clip0)">
<path d="M23.7076 4L20.7967 22.1142H25.4494L28.3585 4H23.7076ZM37.7418 11.3787C36.1159 10.5758 35.1192 10.0339 35.1192 9.21269C35.1391 8.46603 35.9621 7.70109 37.7999 7.70109C39.3115 7.66312 40.4225 8.01836 41.2654 8.37181L41.6876 8.56026L42.3202 4.77031C41.4012 4.41508 39.944 4.02366 38.1442 4.02366C33.5495 4.02366 30.3142 6.41252 30.2941 9.82914C30.2562 12.3504 32.6104 13.7495 34.3723 14.5888C36.1722 15.4498 36.7848 16.008 36.7848 16.7729C36.765 17.9474 35.3295 18.4893 33.99 18.4893C32.1341 18.4893 31.1372 18.2102 29.6238 17.5557L29.0111 17.2766L28.3605 21.2153C29.4534 21.7011 31.4634 22.1287 33.5497 22.1506C38.4326 22.1506 41.6099 19.7979 41.6499 16.1567C41.6658 14.1592 40.4243 12.6293 37.7418 11.3787ZM54.2482 4.05606H50.6485C49.5393 4.05606 48.6964 4.37512 48.2161 5.51339L41.305 22.1142H46.1879L47.5327 18.5201H52.9956L53.6934 22.1287H58L54.2482 4.05606ZM48.8868 14.8929C48.9811 14.9021 50.761 9.02583 50.761 9.02583L52.1784 14.8929C52.1784 14.8929 49.8058 14.8929 48.8868 14.8929ZM16.9089 4L12.3505 16.3069L11.8539 13.8799C11.011 11.0795 8.3685 8.03645 5.41943 6.52484L9.59364 22.0961H14.5165L21.8318 4.00199H16.9089V4Z" fill="#2394BC"/>
<path d="M10.3204 6.33676C9.96518 4.95556 8.83227 4.02403 7.29363 4.00415H0.0743478L0 4.33931C5.63154 5.72767 10.3584 9.99968 11.8919 14.018L10.3204 6.33676Z" fill="#EFC75E"/>
</g>
<defs>
<clipPath id="clip0">
<rect width="58" height="25" fill="white"/>
</clipPath>
</defs>
</svg>
