<svg width="106" height="25" viewBox="0 0 106 25" fill="none" xmlns="http://www.w3.org/2000/svg">
<path d="M93.3133 0.381863C95.2251 0.381863 97.0437 0.82154 98.6754 1.60807C98.9312 1.72364 99.1887 1.8628 99.4438 2.00209L98.3256 2.99852L96.6477 1.26125L93.7577 3.80789L92.0556 1.97928L86.7405 6.72583L90.1439 10.4531L88.8151 11.6093L92.1722 15.3366L90.8435 16.4943L95.6468 21.7961L98.4891 19.2022L100.961 21.9817C100.471 22.3522 99.9352 22.7233 99.353 23.0466C97.5813 24.0431 95.5294 24.6197 93.3375 24.6197C86.6004 24.6197 81.1225 19.1809 81.1225 12.4901C81.0996 5.84571 86.5777 0.380371 93.314 0.380371L93.3133 0.381863ZM91.0751 11.7485L93.9901 9.15465L96.6008 12.0497L93.6858 14.642L91.0751 11.7477V11.7485ZM93.1497 16.7498L96.042 14.1332L98.6754 17.0275L95.7603 19.6214L93.1505 16.7498H93.1497ZM89.0021 6.81708L91.9148 4.22473L94.5269 7.11828L91.612 9.71221L89.0021 6.81708ZM94.3399 5.42891L96.5069 3.48388L98.4656 5.63658L96.2964 7.60443L94.3384 5.42891H94.3399ZM98.2089 14.3415L100.376 12.3973L102.335 14.5728L100.166 16.5186L98.2082 14.3415H98.2089ZM100.12 18.7177L102.288 16.7726L104.246 18.9253L102.078 20.8932L100.12 18.7177ZM101.006 8.715L102.452 7.41957L103.757 8.85494L102.312 10.1511L101.005 8.715H101.006ZM99.141 4.4324L100.587 3.11345L101.893 4.57234L100.447 5.86926L99.1417 4.43319L99.141 4.4324ZM102.849 12.9998L104.293 11.7029L105.621 13.1382L104.153 14.4344L102.848 12.9998H102.849ZM96.3449 9.78065L98.5126 7.8364L100.471 9.98911L98.3036 11.9341L96.3449 9.78135V9.78065ZM6.77261 8.73088H6.66284L4.5981 16.6084H2.91119L0.37854 5.41751H2.12982L3.88034 13.7673H3.98935L6.02076 5.41751H7.41239L9.58539 13.7673H9.69595L11.2905 5.41751H13.1197L10.5863 16.6084H8.89793L6.77261 8.73088ZM15.3412 11.8436H18.9202C18.8422 10.1869 18.0442 9.52358 17.2 9.52358C16.246 9.52358 15.5116 10.2667 15.3404 11.8436H15.3412ZM20.171 14.8116V16.0121C19.4669 16.4228 18.5295 16.7384 17.4029 16.7384C14.7756 16.7384 13.699 15.0962 13.699 12.6027C13.699 10.2028 14.9028 8.46697 17.2469 8.46697C19.2004 8.46697 20.4042 9.74487 20.4042 12.3175V12.9017H15.3086C15.3086 14.7958 16.0733 15.6324 17.6845 15.6324C18.5295 15.6324 19.3109 15.3312 20.1702 14.8109L20.171 14.8116ZM24.0423 15.4734C24.542 15.6939 25.0902 15.7259 25.4809 15.7259C26.6393 15.7259 27.5123 14.9995 27.5123 12.4421C27.5123 10.4378 26.793 9.79118 25.7466 9.79118C25.1212 9.79118 24.6677 9.96451 24.043 10.3115V15.4726L24.0423 15.4734ZM24.0574 9.14473C24.5269 8.89231 25.3234 8.559 26.1683 8.559C28.1066 8.559 29.1545 9.91681 29.1545 12.4422C29.1545 15.3936 27.7462 16.8313 25.4809 16.8313C24.6518 16.8313 23.3699 16.5619 22.4318 16.0554V5.04173L24.0582 4.64613V9.14473H24.0574ZM36.1914 14.2335H36.2686L39.6129 5.40987H41.5512V16.6016H39.8628V8.48829H39.7227L36.5336 16.6016H35.5342L32.3451 8.67841H32.2035V16.6016H30.7968V5.40987H32.6896L36.1914 14.2335ZM48.4496 12.6027C48.4496 10.4728 47.591 9.57298 46.5287 9.57298C45.4974 9.57298 44.6055 10.4721 44.6055 12.6027C44.6055 14.7653 45.4187 15.6324 46.5287 15.6324C47.6379 15.6324 48.4503 14.7653 48.4503 12.602L48.4496 12.6027ZM42.9656 12.602C42.9656 9.83925 44.4662 8.46618 46.5294 8.46618C48.5942 8.46618 50.0941 9.83849 50.0941 12.6012C50.0941 15.2993 48.6721 16.7369 46.5302 16.7369C44.3875 16.7369 42.9663 15.2993 42.9663 12.6012L42.9656 12.602ZM51.3297 9.63536C52.0339 9.2094 53.5194 8.46697 55.3153 8.46697C57.1915 8.46697 57.8941 9.20783 57.8941 10.8326V16.5483H56.2693V11.1985C56.2693 9.951 55.6613 9.73046 54.8626 9.73046C54.2379 9.73046 53.4391 10.0151 52.9545 10.2986V16.549H51.3297V9.63457V9.63536ZM61.3361 11.8436H64.9144C64.8387 10.1869 64.0399 9.52358 63.1957 9.52358C62.2417 9.52358 61.5072 10.2667 61.3354 11.8436H61.3361ZM66.1644 14.8116V16.0121C65.4618 16.4228 64.5237 16.7384 63.3971 16.7384C60.7736 16.7384 59.6946 15.0962 59.6946 12.6027C59.6946 10.2028 60.897 8.46697 63.2418 8.46697C65.1953 8.46697 66.4006 9.74487 66.4006 12.3175V12.9017H61.3051C61.3051 14.7958 62.0698 15.6324 63.6795 15.6324C64.5237 15.6324 65.3073 15.3312 66.1644 14.8109V14.8116ZM72.8946 8.46776H74.5679L71.7378 16.3558C70.9556 18.5343 70.0039 19.6708 68.2057 19.6708V18.3792C69.2687 18.3792 69.9244 17.5273 70.3007 16.3574L67.2994 8.46776H69.0181L71.02 14.2747H71.1139L72.8947 8.46697L72.8946 8.46776Z" fill="#006CB4"/>
</svg>
