<svg width="20" height="20" viewBox="0 0 20 20"  xmlns="http://www.w3.org/2000/svg">
<g clip-path="url(#clip0)">
<path d="M9.99985 4.13495C10.9716 4.13495 11.7593 3.3472 11.7593 2.37546C11.7593 1.40372 10.9716 0.615967 9.99985 0.615967C9.02811 0.615967 8.24036 1.40372 8.24036 2.37546C8.24036 3.3472 9.02811 4.13495 9.99985 4.13495Z" fill="#000000"/>
<path d="M12.8554 3.02136C12.5597 4.32761 11.3943 5.308 9.99997 5.308C8.6056 5.308 7.44025 4.32761 7.14451 3.02136C6.09564 3.25507 5.30798 4.18957 5.30798 5.308V7.65402C5.30798 8.30066 5.83435 8.82703 6.48099 8.82703C7.12763 8.82703 7.654 8.30066 7.654 7.65402V6.48101H12.346V7.65402C12.346 8.30066 12.8724 8.82703 13.519 8.82703C14.1656 8.82703 14.692 8.30066 14.692 7.65402V5.308C14.692 4.18957 13.9043 3.25507 12.8554 3.02136Z" fill="#000000"/>
<path d="M19.0905 14.95C18.2489 14.4641 17.1728 14.7524 16.6869 15.594C16.2011 16.4356 16.4894 17.5117 17.331 17.9975C18.1725 18.4834 19.2878 18.1951 19.7736 17.3535C20.2595 16.512 19.932 15.4359 19.0905 14.95Z" fill="#000000"/>
<path d="M18.0171 10.9441L15.9855 9.77112C15.4254 9.4478 14.7064 9.64045 14.3831 10.2005C14.0598 10.7605 14.2525 11.4795 14.8125 11.8028L15.8284 12.3893L13.4823 16.4527L12.4665 15.8662C11.9064 15.5429 11.1875 15.7356 10.8641 16.2956C10.5408 16.8556 10.7335 17.5746 11.2935 17.898L13.3252 19.071C14.2938 19.6302 15.497 19.4153 16.2237 18.6238C15.2403 17.7146 14.9739 16.2151 15.6711 15.0075C16.3683 13.7999 17.8 13.281 19.0792 13.6779C19.4012 12.6528 18.9858 11.5033 18.0171 10.9441Z" fill="#000000"/>
<path d="M3.31308 15.5942C2.82718 14.7526 1.75113 14.4642 0.909526 14.9502C0.0680025 15.436 -0.259498 16.5121 0.22644 17.3537C0.71226 18.1952 1.82749 18.4836 2.66902 17.9977C3.51062 17.5118 3.79894 16.4357 3.31308 15.5942Z" fill="#000000"/>
<path d="M9.13598 16.2957C8.81266 15.7357 8.09364 15.5431 7.53364 15.8663L6.51778 16.4528L4.17176 12.3894L5.18762 11.8029C5.74766 11.4796 5.94028 10.7606 5.617 10.2006C5.29368 9.64056 4.57465 9.44794 4.01465 9.77122L1.98301 10.9442C1.01434 11.5034 0.598872 12.6529 0.920981 13.6781C2.20008 13.2811 3.63184 13.8001 4.32903 15.0077C5.02622 16.2153 4.75981 17.7147 3.77645 18.6239C4.50321 19.4154 5.70633 19.6303 6.675 19.0711L8.70665 17.8981C9.26665 17.5747 9.4593 16.8557 9.13598 16.2957Z" fill="#000000"/>
</g>
<defs>
<clipPath id="clip0">
<rect width="20" height="20" fill="white"/>
</clipPath>
</defs>
</svg>
