<svg width="20" height="20" viewBox="0 0 20 20"  xmlns="http://www.w3.org/2000/svg">
<path d="M4.57147 9.16004C3.30911 9.16004 2.28576 8.15716 2.28576 6.92005C2.28576 5.68293 3.30911 4.68005 4.57147 4.68005C5.83383 4.68005 6.85718 5.68293 6.85718 6.92005C6.85718 8.15716 5.83383 9.16004 4.57147 9.16004Z" fill="#00000"/>
<path d="M-4.19617e-05 13.36V13.92C-4.19617e-05 14.3792 0.388529 14.76 0.8571 14.76H5.71423V14.48C5.71423 12.9456 6.46852 11.5792 7.6228 10.728C7.15423 10.448 6.59423 10.28 5.99995 10.28H3.14281C1.40567 10.28 -4.19617e-05 11.6576 -4.19617e-05 13.36Z" fill="#00000"/>
<path d="M13.7143 9.71999C11.8207 9.71999 10.2857 8.21567 10.2857 6.36C10.2857 4.50432 11.8207 3 13.7143 3C15.6078 3 17.1428 4.50432 17.1428 6.36C17.1428 8.21567 15.6078 9.71999 13.7143 9.71999Z" fill="#00000"/>
<path d="M10.5714 11.4H16.8571C18.5909 11.4 20 12.781 20 14.48V16.16C20 16.6237 19.616 17 19.1429 17H8.28571C7.81257 17 7.42857 16.6237 7.42857 16.16V14.48C7.42857 12.781 8.83771 11.4 10.5714 11.4Z" fill="#00000"/>
</svg>
