<svg width="20" height="20" viewBox="0 0 20 20" fill="none" xmlns="http://www.w3.org/2000/svg">
<path d="M14.6342 0.65C14.6524 0.484453 14.5992 0.318945 14.4881 0.194922C14.377 0.0708594 14.2183 0 14.0517 0H5.94836C5.7818 0 5.62313 0.0708594 5.51199 0.194922C5.40086 0.318945 5.34774 0.484453 5.36594 0.65L5.56149 2.42801H14.4386L14.6342 0.65Z" fill="#1F2430"/>
<path d="M10.6278 11.9763C11.9652 11.9763 13.1164 11.1242 13.5378 9.90833C16.2773 9.42388 18.306 7.02982 18.306 4.21423C18.306 3.89064 18.0436 3.6283 17.72 3.6283H2.28003C1.95644 3.6283 1.69409 3.89064 1.69409 4.21423C1.69409 7.02974 3.72276 9.42388 6.46226 9.90833C6.88366 11.1242 8.03484 11.9763 9.37222 11.9763H9.41409V14.2913H6.55378C6.23019 14.2913 5.96784 14.5536 5.96784 14.8772V18.8281H5.37882C5.05523 18.8281 4.79288 19.0905 4.79288 19.4141C4.79288 19.7377 5.05523 20 5.37882 20H14.6212C14.9448 20 15.2071 19.7377 15.2071 19.4141C15.2071 19.0905 14.9448 18.8281 14.6212 18.8281H14.0322V14.8772C14.0322 14.5536 13.7698 14.2913 13.4462 14.2913H10.586V11.9763H10.6278ZM17.097 4.80017C16.8623 6.6424 15.5352 8.16798 13.7534 8.65896L14.1777 4.80017H17.097ZM2.90304 4.80017H5.82233L6.24671 8.659C4.46487 8.16798 3.13776 6.6424 2.90304 4.80017Z" fill="#1F2430"/>
</svg>
