<svg width="20" height="20" viewBox="0 0 20 20"  xmlns="http://www.w3.org/2000/svg">
<g clip-path="url(#clip0)">
<path d="M18.6592 4.98038C17.7649 3.44836 16.5519 2.23536 15.0199 1.34115C13.4875 0.44699 11.8148 0 10.0003 0C8.18602 0 6.51276 0.44699 4.9807 1.34115C3.44854 2.23523 2.23554 3.44822 1.34129 4.98038C0.44699 6.51262 0 8.18588 0 10C0 11.8143 0.447127 13.4872 1.34115 15.0196C2.23536 16.5516 3.44836 17.7646 4.98052 18.6589C6.51276 19.553 8.18588 20 10.0001 20C11.8143 20 13.4877 19.553 15.0198 18.6589C16.5519 17.7649 17.7648 16.5516 18.659 15.0196C19.553 13.4874 20 11.8142 20 10C20 8.1857 19.553 6.51239 18.6592 4.98038ZM8.33356 2.49983C8.33356 2.37825 8.37255 2.27851 8.45077 2.20043C8.52885 2.12239 8.62877 2.08322 8.75027 2.08322H11.2504C11.3718 2.08322 11.4717 2.12239 11.5496 2.20043C11.6277 2.27851 11.667 2.37825 11.667 2.49983V4.58324C11.667 4.70473 11.6277 4.80461 11.5496 4.8826C11.4717 4.96068 11.3719 4.99971 11.2504 4.99971H8.75027C8.62877 4.99971 8.52889 4.96068 8.45077 4.8826C8.37255 4.80466 8.33356 4.70473 8.33356 4.58324V2.49983ZM13.3335 16.25C13.3335 16.3714 13.2941 16.4714 13.2163 16.5493C13.1386 16.6274 13.0387 16.6665 12.917 16.6665H7.08348C6.96185 16.6665 6.86211 16.6274 6.78398 16.5493C6.7059 16.4714 6.66687 16.3715 6.66687 16.2499V14.1665C6.66687 14.0447 6.7059 13.9452 6.78398 13.867C6.86211 13.7891 6.96199 13.7498 7.08348 13.7498H8.33356V9.58327H7.08348C6.96185 9.58327 6.86215 9.54428 6.78398 9.46615C6.7059 9.38812 6.66687 9.28824 6.66687 9.16665V7.08339C6.66687 6.9618 6.7059 6.86206 6.78398 6.78389C6.8622 6.70577 6.96208 6.66677 7.08348 6.66677H11.2504C11.3718 6.66677 11.4717 6.70577 11.5496 6.78389C11.6277 6.86206 11.667 6.9618 11.667 7.08339V13.7501H12.9167C13.0384 13.7501 13.1383 13.7891 13.2163 13.8671C13.294 13.9452 13.3333 14.0451 13.3333 14.1666V16.2501H13.3335V16.25Z" fill="#00000"/>
</g>
<defs>
<clipPath id="clip0">
<rect width="20" height="20" fill="white"/>
</clipPath>
</defs>
</svg>
