<svg width="20" height="20" viewBox="0 0 20 20"  xmlns="http://www.w3.org/2000/svg">
<path d="M20 6.36719V5.3125C20 4.10438 19.0206 3.125 17.8125 3.125H2.1875C0.979375 3.125 0 4.10438 0 5.3125V6.36719C0 6.47504 0.0874609 6.5625 0.195312 6.5625H19.8047C19.9125 6.5625 20 6.47504 20 6.36719Z" fill="#000000"/>
<path d="M0 8.00781V14.6875C0 15.8956 0.979375 16.875 2.1875 16.875H17.8125C19.0206 16.875 20 15.8956 20 14.6875V8.00781C20 7.89996 19.9125 7.8125 19.8047 7.8125H0.195312C0.0874609 7.8125 0 7.89996 0 8.00781ZM5 13.125C5 13.4702 4.72016 13.75 4.375 13.75H3.75C3.40484 13.75 3.125 13.4702 3.125 13.125V12.5C3.125 12.1548 3.40484 11.875 3.75 11.875H4.375C4.72016 11.875 5 12.1548 5 12.5V13.125Z" fill="#000000"/>
</svg>
