<svg width="20" height="20" viewBox="0 0 20 20"  xmlns="http://www.w3.org/2000/svg">
<path d="M15.9167 20H5.08333C3.93417 20 3 19.065 3 17.9167V4.58333C3 3.435 3.93417 2.5 5.08333 2.5H6.75C6.98 2.5 7.16667 2.68667 7.16667 2.91667C7.16667 3.14667 6.98 3.33333 6.75 3.33333H5.08333C4.39417 3.33333 3.83333 3.89417 3.83333 4.58333V17.9167C3.83333 18.6058 4.39417 19.1667 5.08333 19.1667H15.9167C16.6058 19.1667 17.1667 18.6058 17.1667 17.9167V4.58333C17.1667 3.89417 16.6058 3.33333 15.9167 3.33333H14.25C14.02 3.33333 13.8333 3.14667 13.8333 2.91667C13.8333 2.68667 14.02 2.5 14.25 2.5H15.9167C17.0658 2.5 18 3.435 18 4.58333V17.9167C18 19.065 17.0658 20 15.9167 20Z" fill="#000000"/>
<path d="M13.4167 5H7.58337C6.89421 5 6.33337 4.43917 6.33337 3.75V2.08333C6.33337 1.85333 6.52004 1.66667 6.75004 1.66667H8.45837C8.65171 0.716667 9.49421 0 10.5 0C11.5059 0 12.3484 0.716667 12.5417 1.66667H14.25C14.48 1.66667 14.6667 1.85333 14.6667 2.08333V3.75C14.6667 4.43917 14.1059 5 13.4167 5ZM7.16671 2.5V3.75C7.16671 3.98 7.35421 4.16667 7.58337 4.16667H13.4167C13.6459 4.16667 13.8334 3.98 13.8334 3.75V2.5H12.1667C11.9367 2.5 11.75 2.31333 11.75 2.08333C11.75 1.39417 11.1892 0.833333 10.5 0.833333C9.81087 0.833333 9.25004 1.39417 9.25004 2.08333C9.25004 2.31333 9.06337 2.5 8.83337 2.5H7.16671Z" fill="#000000"/>
<path d="M15.0833 8.33334H5.91667C5.68667 8.33334 5.5 8.14667 5.5 7.91667C5.5 7.68667 5.68667 7.5 5.91667 7.5H15.0833C15.3133 7.5 15.5 7.68667 15.5 7.91667C15.5 8.14667 15.3133 8.33334 15.0833 8.33334Z" fill="#000000"/>
<path d="M15.0833 10.8333H5.91667C5.68667 10.8333 5.5 10.6467 5.5 10.4167C5.5 10.1867 5.68667 10 5.91667 10H15.0833C15.3133 10 15.5 10.1867 15.5 10.4167C15.5 10.6467 15.3133 10.8333 15.0833 10.8333Z" fill="#000000"/>
<path d="M15.0833 13.3333H5.91667C5.68667 13.3333 5.5 13.1467 5.5 12.9167C5.5 12.6867 5.68667 12.5 5.91667 12.5H15.0833C15.3133 12.5 15.5 12.6867 15.5 12.9167C15.5 13.1467 15.3133 13.3333 15.0833 13.3333Z" fill="#000000"/>
<path d="M15.0833 15.8333H5.91667C5.68667 15.8333 5.5 15.6467 5.5 15.4167C5.5 15.1867 5.68667 15 5.91667 15H15.0833C15.3133 15 15.5 15.1867 15.5 15.4167C15.5 15.6467 15.3133 15.8333 15.0833 15.8333Z" fill="#000000"/>
</svg>
