<svg width="28" height="44" viewBox="0 0 28 44" fill="none" xmlns="http://www.w3.org/2000/svg">
<g clip-path="url(#clip0)">
<path d="M27.8779 16.9429C27.7961 16.8011 27.6773 16.6832 27.5339 16.6012C27.3904 16.5192 27.2273 16.476 27.0612 16.476H14.7633L16.8251 1.02283C16.8472 0.816019 16.7977 0.607917 16.6846 0.432035C16.5715 0.256154 16.4013 0.122728 16.2015 0.0532393C16.0017 -0.0162492 15.7839 -0.0177562 15.5831 0.048961C15.3823 0.115678 15.2103 0.246737 15.0947 0.421036L0.139058 26.1234C0.0516024 26.2629 0.00366986 26.4228 0.00020247 26.5866C-0.00326492 26.7504 0.0378583 26.9121 0.119333 27.055C0.200807 27.198 0.319684 27.3171 0.463705 27.4C0.607726 27.4829 0.771679 27.5266 0.938659 27.5266H13.0528L11.4189 43.003C11.4028 43.2091 11.4575 43.4146 11.5742 43.5867C11.6909 43.7588 11.8629 43.8876 12.0629 43.9528C12.2629 44.0179 12.4794 44.0156 12.6778 43.9462C12.8763 43.8767 13.0454 43.7442 13.1582 43.5696L20.5124 30.7198L27.8667 17.87C27.952 17.7302 27.998 17.5708 27.9999 17.4079C28.0019 17.245 27.9598 17.0846 27.8779 16.9429Z" fill="#BDBDBD"/>
</g>
<defs>
<clipPath id="clip0">
<rect width="28" height="44" fill="white"/>
</clipPath>
</defs>
</svg>
