<svg width="20" height="20" viewBox="0 0 20 20"  xmlns="http://www.w3.org/2000/svg">
<path d="M16.5625 0H5.39062C3.96902 0 2.8125 1.15652 2.8125 2.57812V17.1875C2.8125 18.7383 4.07418 20 5.625 20H16.5625C16.9077 20 17.1875 19.7202 17.1875 19.375C17.1875 19.0298 16.9077 18.75 16.5625 18.75H5.625C4.76344 18.75 4.0625 18.0491 4.0625 17.1875C4.0625 16.3259 4.76344 15.625 5.625 15.625H16.5625C16.9077 15.625 17.1875 15.3452 17.1875 15V0.625C17.1875 0.279844 16.9077 0 16.5625 0ZM4.0625 14.509V2.57812C4.0625 1.84461 4.65711 1.25 5.39062 1.25H5.42969C5.53754 1.25 5.625 1.33746 5.625 1.44531V14.1861C5.625 14.2882 5.54637 14.3742 5.44445 14.3807C5.05051 14.4059 4.6784 14.5125 4.34477 14.6839C4.21574 14.7501 4.0625 14.654 4.0625 14.509Z" fill="#000000"/>
<path d="M16.5625 16.5625H5.625C5.2798 16.5625 5 16.8423 5 17.1875C5 17.5327 5.2798 17.8125 5.625 17.8125H16.5625C16.9077 17.8125 17.1875 17.5327 17.1875 17.1875C17.1875 16.8423 16.9077 16.5625 16.5625 16.5625Z" fill="#BDBDBD"/>
</svg>
