<svg width="48" height="44" viewBox="0 0 48 44" fill="none" xmlns="http://www.w3.org/2000/svg">
<path d="M43.7084 11.4823C37.3685 1.32636 27.8179 8.39197 27.8179 8.39197C27.1985 8.84841 26.0564 9.22368 25.2803 9.22542L22.7222 9.22717C21.9461 9.22804 20.804 8.85277 20.1855 8.39633C20.1855 8.39633 10.634 1.32898 4.29323 11.4849C-2.04578 21.6374 0.508799 32.694 0.508799 32.694C0.956343 35.4012 2.43145 37.2077 5.21517 36.9808C7.99083 36.7548 14.0157 29.69 14.0157 29.69C14.5133 29.1079 15.5561 28.6323 16.3304 28.6323L31.6668 28.6297C32.4419 28.6297 33.4838 29.1053 33.9806 29.6874C33.9806 29.6874 40.0063 36.7522 42.7865 36.9782C45.5666 37.2051 47.0453 35.3968 47.4901 32.6914C47.4892 32.6914 50.0483 21.6365 43.7084 11.4823ZM18.2369 19.7488H14.9483V22.8391C14.9483 22.8391 14.252 23.3575 13.1743 23.3444C12.0984 23.3287 11.6115 22.7789 11.6115 22.7789V19.7497H8.50551C8.50551 19.7497 8.11794 19.3622 8.01411 18.3419C7.91207 17.3217 8.44285 16.497 8.44285 16.497H11.7323V13.2906C11.7323 13.2906 12.409 12.9371 13.3819 12.9642C14.3558 12.9939 15.0692 13.3508 15.0692 13.3508L15.0558 16.4961H18.1617C18.1617 16.4961 18.7041 17.1751 18.7489 17.9955C18.7936 18.8167 18.2369 19.7488 18.2369 19.7488ZM33.3209 23.2711C31.8807 23.2711 30.7198 22.1357 30.7198 20.7332C30.7198 19.3281 31.8807 18.1953 33.3209 18.1953C34.7548 18.1953 35.9247 19.3281 35.9247 20.7332C35.9247 22.1366 34.7548 23.2711 33.3209 23.2711ZM33.3209 16.2884C31.8807 16.2884 30.7198 15.1539 30.7198 13.7514C30.7198 12.3463 31.8807 11.2135 33.3209 11.2135C34.7548 11.2135 35.9247 12.3463 35.9247 13.7514C35.9247 15.1547 34.7548 16.2884 33.3209 16.2884ZM39.8031 20.0368C38.3629 20.0368 37.202 18.9022 37.202 17.4989C37.202 16.0947 38.3629 14.961 39.8031 14.961C41.2371 14.961 42.4069 16.0947 42.4069 17.4989C42.4069 18.9022 41.2371 20.0368 39.8031 20.0368Z" fill="#BDBDBD"/>
</svg>
