<svg width="64" height="44" viewBox="0 0 64 44" fill="none" xmlns="http://www.w3.org/2000/svg">
<path d="M42.0209 34.3613L41.4826 33.823C41.4576 33.798 41.445 33.7854 41.42 33.7604C38.4408 35.5254 35.0109 36.4768 31.4934 36.4768C27.0746 36.4768 22.8686 35.0122 19.4513 32.3083C18.525 32.9468 17.5736 33.6603 16.6473 34.4239C15.9088 35.0247 15.4832 35.9385 15.4832 36.8899V41.4088H31.5435H47.5913V39.9192L42.8721 35.2L42.0209 34.3613Z" fill="#BDBDBD"/>
<path d="M32.257 6.75964H31.5435H30.83C27.5503 6.75964 24.884 9.42593 24.884 12.7056V19.3025C24.884 20.3414 25.4098 21.2427 26.2109 21.781V27.414C27.8257 28.2402 29.6283 28.6908 31.5059 28.6908C33.4086 28.6908 35.2362 28.2402 36.8636 27.3889V21.7935C37.6647 21.2552 38.1904 20.354 38.1904 19.315V12.7181C38.203 9.41341 35.5367 6.75964 32.257 6.75964Z" fill="#BDBDBD"/>
<path d="M61.1228 29.9676C57.6929 27.1511 54.0002 25.286 53.2491 24.9104C53.1615 24.8729 53.1114 24.7852 53.1114 24.6851V19.3525C53.7874 18.9019 54.2255 18.1383 54.2255 17.2746V11.7417C54.2255 8.98781 51.9973 6.75964 49.2434 6.75964H48.6426H48.0918C49.8443 9.60118 50.8582 12.8558 50.9834 16.2481C51.1336 20.0285 50.1823 23.7337 48.2796 26.9383C48.3046 26.9633 48.3171 26.9759 48.3422 27.0009L48.5925 27.2512L48.8804 27.5392L49.7316 28.3904L57.1922 35.851H62.0992V32.0581C62.0992 31.2444 61.7362 30.4808 61.1228 29.9676Z" fill="#BDBDBD"/>
<path d="M57.8182 39.9818L47.9667 30.1303L47.1155 29.2791L46.8276 28.9912L46.5772 28.7408L45.9138 29.4043L44.4868 27.9772C50.1448 21.3053 49.8319 11.291 43.5229 4.98208C40.2057 1.66486 35.8495 0 31.5058 0C27.1622 0 22.806 1.66486 19.4888 4.98208C12.8543 11.6165 12.8543 22.3818 19.4888 29.0162C22.806 32.3334 27.1622 33.9983 31.5058 33.9983C35.4114 33.9983 39.3169 32.6589 42.4839 29.9801L43.9109 31.4071L43.2475 32.0706L43.7858 32.6088L44.637 33.46L54.4885 43.3115C54.9516 43.7747 55.5525 44 56.1533 44C56.7542 44 57.355 43.7747 57.8182 43.3115C58.732 42.3977 58.732 40.9081 57.8182 39.9818C57.8182 39.9943 57.8182 39.9818 57.8182 39.9818ZM41.5201 27.0259C38.7536 29.7923 35.1235 31.1693 31.5058 31.1693C27.8757 31.1693 24.258 29.7923 21.4916 27.0259C15.9587 21.493 15.9587 12.5303 21.4916 6.99744C24.258 4.23101 27.8882 2.85405 31.5058 2.85405C35.136 2.85405 38.7536 4.23101 41.5201 6.99744C47.0529 12.5178 47.0529 21.493 41.5201 27.0259Z" fill="#BDBDBD"/>
<path d="M14.9448 6.75964H14.4566H13.8558C11.1018 6.75964 8.87368 8.98781 8.87368 11.7417V17.2746C8.87368 18.1383 9.31181 18.9019 9.98777 19.3525V24.6851C9.98777 24.7852 9.93769 24.8604 9.85007 24.9104C9.099 25.2734 5.40626 27.1511 1.97639 29.9676C1.36302 30.4808 1 31.2444 1 32.0456V35.8384H13.1673C13.4176 34.5491 14.0936 33.385 15.1201 32.5463C15.9462 31.8703 16.7849 31.2319 17.6111 30.6436C11.2145 24.1343 10.3257 14.2202 14.9448 6.75964Z" fill="#BDBDBD"/>
</svg>
