<?xml version="1.0" encoding="utf-8"?>
<!-- Generator: Adobe Illustrator 23.0.2, SVG Export Plug-In . SVG Version: 6.00 Build 0)  -->
<svg version="1.1" id="Layer_1" xmlns="http://www.w3.org/2000/svg" xmlns:xlink="http://www.w3.org/1999/xlink" x="0px" y="0px"
	 viewBox="0 0 311.81 62.36" style="enable-background:new 0 0 311.81 62.36;" xml:space="preserve">
<style type="text/css">
	.st0{fill:#000000;}
</style>
<g>
	<g>
		<path class="st0" d="M83.44,19.69c7.49,0,13.32,2.92,13.32,11.7c0,8.28-5.15,11.95-12.92,11.95H73.54v-1.08
			c3.17,0,3.53-0.47,3.53-3.38V23.79c0-2.63-0.83-3.02-3.53-3.02v-1.08H83.44z M80.38,41.86c0.72,0.07,1.4,0.11,2.12,0.11
			c6.55,0,10.47-2.16,10.47-10.26c0-6.84-3.38-10.55-10.83-10.55c-0.58,0-1.08,0-1.76,0.07V41.86z"/>
		<path class="st0" d="M109.5,41.11c-1.69,1.48-2.99,2.48-5.29,2.48c-2.77,0-4.28-1.73-4.28-4.03c0-4.75,6.37-5.69,9.47-6.66v-1.58
			c0-3.13-1.08-4.32-3.24-4.32c-2.05,0-2.41,0.76-2.41,2.92c0,1.12-0.58,1.66-1.58,1.66c-0.72,0-1.51-0.54-1.51-1.73
			c0-2.02,2.41-3.96,6.33-3.96s5.4,1.8,5.4,5.54v8.17c0,1.48,0.32,1.76,1.08,1.76c0.68,0,1.19-0.36,1.69-0.9l0.54,0.58
			c-1.19,1.73-2.05,2.48-3.89,2.48c-1.58,0-1.94-0.83-2.16-2.41H109.5z M109.4,34.09c-3.28,0.83-6.3,1.8-6.3,4.61
			c0,1.8,1.04,2.92,2.59,2.92c1.19,0,2.48-0.58,3.71-1.58V34.09z"/>
		<path class="st0" d="M122.43,29.7h0.11c1.83-2.66,2.92-3.92,4.64-3.92c1.4,0,2.09,0.79,2.09,2.02c0,1.37-0.79,1.94-1.58,1.94
			c-1.19,0-1.91-1.22-2.34-1.22c-0.83,0-1.98,1.51-2.84,2.95v8.21c0,2.27,0.68,2.63,3.38,2.63v1.04h-9V42.3
			c2.38,0,2.63-0.43,2.63-2.45v-9.9c0-1.3,0-1.94-1.3-1.94c-0.72,0-1.12,0.07-1.12,0.07v-1.01l4.46-1.08h0.86V29.7z"/>
		<path class="st0" d="M145.14,38.7c-1.29,2.74-3.02,5-6.73,5c-4.32,0-7.67-3.13-7.67-8.93c0-6.01,3.38-8.89,7.6-8.89
			c3.92,0,6.52,2.84,6.7,7.88h-11.38c0,4.97,2.74,7.23,5.62,7.23c2.92,0,4.03-1.3,5.18-2.81L145.14,38.7z M141.65,32.43
			c-0.11-2.66-1.3-5.11-3.85-5.11c-2.45,0-3.89,1.76-4.17,5.11H141.65z"/>
		<path class="st0" d="M173.65,27.36c-1.4,0-1.94,0.5-2.66,2.38l-5.36,13.82h-1.73l-3.82-10.47h-0.14l-4.21,10.47h-1.66l-5.4-13.57
			c-0.94-2.23-1.48-2.63-3.06-2.63v-1.04h7.74v1.04c-1.44,0-1.91,0.32-1.91,0.9c0,0.47,0.18,0.86,0.4,1.4l3.13,7.96l0.65,2.09h0.25
			l0.76-2.09l2.59-6.55l-0.4-1.08c-0.86-2.34-1.4-2.63-2.99-2.63v-1.04h7.52v1.04c-1.37,0-1.8,0.32-1.8,0.9
			c0,0.43,0.14,0.94,0.32,1.48l2.92,7.88l0.65,2.09h0.22l0.72-2.09l2.84-8.06c0.04-0.18,0.22-0.68,0.22-1.3
			c0-0.68-0.68-0.9-2.02-0.9v-1.04h6.23V27.36z"/>
		<path class="st0" d="M182.44,43.34h-8.1v-1.01c2.41,0,2.52-0.58,2.52-2.63V29.66c0-1.55-0.54-1.69-1.58-1.69
			c-0.5,0-0.9,0.07-0.9,0.07V27l4.54-1.01h0.94V39.7c0,2.09,0.18,2.63,2.59,2.63V43.34z M180.46,21.13c0,1.12-0.79,2.05-2.05,2.05
			c-1.22,0-2.05-0.94-2.05-2.05c0-1.08,0.79-2.02,2.05-2.02S180.46,20.05,180.46,21.13z"/>
		<path class="st0" d="M200.76,39.7c0,2.02,0.25,2.63,2.66,2.63v1.01h-8.31v-1.01c2.55,0,2.66-0.61,2.66-2.63v-6.52
			c0-4.32-1.69-5-3.31-5c-1.94,0-3.28,1.3-4.36,2.27v9.25c0,2.02,0.14,2.63,2.74,2.63v1.01h-8.24v-1.01c2.41,0,2.52-0.61,2.52-2.63
			V29.59c0-1.3-0.54-1.58-1.51-1.58c-0.61,0-0.97,0.07-0.97,0.07v-1.04l4.57-1.04h0.83L190,28.91h0.14
			c1.94-1.73,3.53-3.02,5.79-3.02c3.28,0,4.82,2.27,4.82,6.41V39.7z"/>
		<path class="st0" d="M206.02,25.77c1.33-0.54,2.99-1.4,2.99-4.03c-0.43,0.18-0.72,0.22-1.12,0.22c-1.4,0-1.98-0.9-1.98-1.91
			c0-1.15,0.79-2.12,2.23-2.12c1.8,0,2.74,1.19,2.74,3.06c0,3.92-2.92,5.04-4.43,5.69L206.02,25.77z"/>
		<path class="st0" d="M215.34,37.44c0.76,3.71,2.12,4.97,4.79,4.97c1.8,0,3.1-0.68,3.1-2.38s-0.68-2.38-4.03-4.03
			c-3.28-1.66-4.75-2.92-4.75-5.58c0-2.95,2.41-4.54,5.51-4.54c1.8,0,2.88,0.5,3.78,0.94h0.04l0.61-0.76h0.72l0.11,5.51h-0.97
			c-0.79-3.42-2.12-4.46-4.32-4.46c-1.66,0-2.92,0.76-2.92,2.38c0,1.4,1.19,2.3,4.21,3.85c3.28,1.73,5.04,3.06,5.04,5.72
			c0,3.38-2.81,4.68-6.05,4.68c-2.09,0-3.17-0.54-4.1-0.94h-0.07l-0.76,0.83h-0.76l-0.11-6.19H215.34z"/>
		<path class="st0" d="M258.43,38.73c-1.94,2.92-4.93,5-9.65,5c-7.42,0-11.3-5.18-11.3-12.2c0-7.85,4.9-12.27,11.81-12.27
			c3.78,0,5.11,1.3,6.01,1.3c0.58,0,0.79-0.58,1.22-1.3h1.08v8.24h-1.22c-0.79-4.72-3.35-6.7-7.06-6.7c-5.18,0-8.1,3.96-8.1,10.37
			c0,7.2,3.53,10.29,8.6,10.29c3.31,0,5.72-1.3,7.74-3.49L258.43,38.73z"/>
		<path class="st0" d="M269.16,43.34h-8.28V42.3c2.38,0,2.52-0.58,2.52-2.59V21.63c0-1.48-0.61-1.55-1.51-1.55
			c-0.61,0-1.15,0.07-1.15,0.07v-0.97l4.75-1.26h0.9V39.7c0,2.09,0.18,2.59,2.77,2.59V43.34z"/>
		<path class="st0" d="M289.43,42.69l-4.57,0.83h-0.79v-2.77h-0.18c-1.91,1.87-3.6,2.95-5.9,2.95c-2.99,0-4.72-1.69-4.72-6.59v-7.31
			c0-1.94-0.5-2.09-2.45-2.12v-1.01l4.64-0.54h0.79v10.51c0,3.67,1.37,4.75,3.24,4.75c1.83,0,2.99-0.9,4.43-2.16v-9.47
			c0-1.91-0.61-2.09-2.92-2.09v-1.01l5.04-0.54h0.86v13.21c0,2.12,0.43,2.38,2.16,2.38h0.36V42.69z"/>
		<path class="st0" d="M296.38,28.94h0.11c1.26-1.51,3.13-3.06,5.54-3.06c3.56,0,6.01,3.31,6.01,7.99c0,6.44-3.63,9.83-8.64,9.83
			c-3.06,0-5.15-0.97-6.01-1.44V22.03c0-1.62-0.22-1.91-1.58-1.91c-0.58,0-1.01,0.07-1.01,0.07v-1.01l4.64-1.26h0.94V28.94z
			 M296.38,40.53c0.68,0.83,1.76,1.69,3.67,1.69c3.42,0,4.71-3.2,4.71-7.2c0-3.46-0.9-6.7-4.32-6.7c-1.83,0-3.42,1.33-4.07,2.2
			V40.53z"/>
	</g>
	<g>
		<g>
			<path class="st0" d="M18.57,41.53l2.98-2.99c0.18-0.18,0.18-0.24,0-0.42l-1.46-1.46c-0.22-0.22-0.25-0.22-0.47,0l-1.29,1.29
				c-0.32,0.32-0.34,0.34-1.61,1.61c-0.16,0.16-0.2,0.26-0.19,0.36l1.74,1.74C18.38,41.67,18.47,41.63,18.57,41.53z"/>
			<path class="st0" d="M16.52,30.87l-1.5-1.5c-0.21-0.22-0.26-0.21-0.48,0l-1.22,1.22c-0.92,0.92-1.42,1.42-2.81,2.8
				c-0.15,0.15-0.19,0.25-0.18,0.36l1.73,1.73c0.13,0.03,0.19,0,0.26-0.07l4.2-4.2C16.65,31.07,16.65,31,16.52,30.87z"/>
			<path class="st0" d="M32.82,11.25l-1.13,1.13c-0.15,0.15-0.16,0.22-0.16,0.23c0,0.02,0.01,0.09,0.15,0.23l1.45,1.45
				c0.2,0.2,0.26,0.2,0.46,0l1.17-1.17c0.7-0.7,1.08-1.08,2.26-2.25c0.15-0.15,0.17-0.24,0.14-0.35l-1.7-1.7
				c-0.03-0.01-0.06-0.02-0.09-0.02c-0.08,0-0.15,0.04-0.26,0.15C33.92,10.15,33.54,10.53,32.82,11.25z"/>
			<path class="st0" d="M15.57,38.49c0.88-0.89,1.04-1.05,1.44-1.45l0.9-0.9c0.19-0.19,0.19-0.25-0.01-0.45l-1.47-1.47
				c-0.17-0.16-0.25-0.16-0.41,0l-0.87,0.87c-0.43,0.43-0.56,0.57-1.48,1.47c-0.14,0.14-0.18,0.24-0.16,0.34l1.73,1.73
				C15.34,38.66,15.43,38.63,15.57,38.49z"/>
			<path class="st0" d="M36.94,13.31l-0.81,0.81c-0.18,0.18-0.19,0.25,0,0.44l1.46,1.46c0.2,0.2,0.26,0.2,0.45,0.01l0.81-0.81
				c0.34-0.34,0.44-0.44,1.26-1.26c0.13-0.13,0.16-0.22,0.14-0.33l-1.73-1.73c-0.02,0-0.04,0-0.05,0c-0.09,0-0.17,0.04-0.29,0.16
				C37.37,12.87,37.27,12.97,36.94,13.31z"/>
			<path class="st0" d="M39.79,16.62c-0.16,0.16-0.13,0.25-0.01,0.37c0.51,0.52,1.03,1.04,1.55,1.55c0.14,0.13,0.22,0.13,0.35,0
				l0.46-0.46c0.34-0.34,0.68-0.69,1.03-1.02c0.16-0.15,0.19-0.25,0.17-0.36L41.63,15c-0.03-0.01-0.06-0.01-0.08-0.01
				c-0.08,0-0.17,0.04-0.28,0.16c-0.32,0.34-0.65,0.66-0.98,0.99L39.79,16.62z"/>
			<path class="st0" d="M14.94,26.38c0.07,0.07,0.15,0.08,0.21,0.03c0.05-0.04,0.09-0.08,0.13-0.12l12.66-12.66
				c0.09-0.09,0.15-0.16-0.04-0.35l-1.46-1.46c-0.17-0.17-0.27-0.19-0.46-0.04L13.36,24.39c-0.06,0.06-0.09,0.09-0.12,0.13
				c-0.04,0.06-0.03,0.14,0.03,0.21C13.82,25.28,14.38,25.83,14.94,26.38z"/>
			<path class="st0" d="M19.07,34.54c0.12,0.12,0.21,0.12,0.33,0c0.18-0.18,0.36-0.36,0.54-0.54l0.52-0.52
				c0.18-0.18,0.36-0.36,0.54-0.54c0.15-0.15,0.06-0.25,0.02-0.29c-0.53-0.55-1.08-1.09-1.63-1.63c-0.04-0.04-0.09-0.07-0.14-0.07
				c-0.05,0-0.11,0.03-0.16,0.08c-0.53,0.53-1.06,1.06-1.59,1.59c-0.11,0.11-0.12,0.22,0,0.33C18.02,33.49,18.54,34.02,19.07,34.54z
				"/>
			<path class="st0" d="M20.95,23.08c-0.05,0-0.1,0.02-0.17,0.09l-1.58,1.58c-0.14,0.14-0.11,0.24-0.01,0.34
				c0.52,0.52,1.04,1.05,1.57,1.57c0.15,0.15,0.26,0.08,0.33,0.01c0.54-0.53,1.07-1.06,1.59-1.59c0.14-0.15,0.08-0.25,0.01-0.32
				c-0.53-0.54-1.06-1.08-1.61-1.61C21.05,23.11,21,23.08,20.95,23.08z"/>
			<path class="st0" d="M26.22,30.42c-0.04-0.04-0.14-0.14-0.3,0.02l-0.79,0.79l-0.27,0.26c-0.18,0.18-0.37,0.37-0.55,0.55
				c-0.07,0.07-0.12,0.18,0,0.3c0.53,0.54,1.07,1.08,1.61,1.61c0.13,0.13,0.24,0.05,0.3-0.01c0.54-0.53,1.08-1.07,1.61-1.61
				c0.14-0.14,0.07-0.24,0.01-0.3C27.3,31.5,26.76,30.96,26.22,30.42z"/>
			<path class="st0" d="M24.03,20c-0.05,0-0.1,0.03-0.17,0.09c-0.53,0.53-1.06,1.05-1.58,1.58c-0.12,0.12-0.12,0.21,0,0.34
				c0.52,0.52,1.04,1.05,1.57,1.57c0.12,0.12,0.21,0.12,0.33,0c0.19-0.18,0.37-0.37,0.56-0.55L25.77,22
				c0.14-0.14,0.09-0.24,0.01-0.32c-0.53-0.54-1.06-1.08-1.61-1.6C24.14,20.04,24.09,20,24.03,20z"/>
			<path class="st0" d="M24.74,35.42c0.1-0.11,0.1-0.21,0-0.32c-0.53-0.53-1.06-1.07-1.59-1.59c-0.04-0.04-0.09-0.08-0.15-0.08
				c-0.05,0-0.1,0.02-0.16,0.08c-0.18,0.18-0.36,0.36-0.55,0.54l-0.49,0.49c-0.19,0.19-0.38,0.38-0.57,0.57
				c-0.11,0.11-0.11,0.21,0,0.31c0.53,0.53,1.06,1.07,1.59,1.59c0.11,0.1,0.21,0.1,0.32,0C23.67,36.5,24.21,35.96,24.74,35.42z"/>
			<path class="st0" d="M27.1,16.93c-0.05,0-0.1,0.03-0.16,0.08l-1.59,1.59c-0.14,0.14-0.11,0.22-0.02,0.31
				c0.53,0.54,1.06,1.08,1.61,1.6c0.1,0.1,0.2,0.1,0.3,0c0.54-0.53,1.08-1.07,1.61-1.61c0.07-0.07,0.14-0.18-0.01-0.33
				c-0.52-0.52-1.04-1.05-1.57-1.57C27.2,16.96,27.15,16.93,27.1,16.93z"/>
			<path class="st0" d="M34.86,19.15c0.18-0.18,0.36-0.36,0.54-0.54l0.48-0.48c0.18-0.18,0.36-0.36,0.54-0.54
				c0.13-0.14,0.13-0.22,0-0.35l-1.54-1.54c-0.07-0.07-0.13-0.11-0.19-0.11c-0.06,0-0.11,0.03-0.18,0.1
				c-0.52,0.52-1.04,1.03-1.55,1.55c-0.14,0.14-0.14,0.23,0,0.37c0.51,0.52,1.02,1.03,1.54,1.54
				C34.65,19.29,34.72,19.29,34.86,19.15z"/>
			<path class="st0" d="M17.85,26.16c-0.06,0-0.11,0.04-0.18,0.1c-0.19,0.19-0.38,0.38-0.57,0.56l-0.97,0.98
				c-0.17,0.17-0.14,0.26-0.02,0.38c0.51,0.52,1.02,1.03,1.54,1.54c0.14,0.13,0.23,0.14,0.36,0c0.53-0.52,1.05-1.04,1.57-1.57
				c0.12-0.12,0.15-0.21-0.01-0.37c-0.51-0.51-1.02-1.02-1.53-1.53C17.97,26.2,17.91,26.16,17.85,26.16z"/>
			<path class="st0" d="M11.86,29.34c0.14,0.13,0.23,0.14,0.36,0c0.53-0.52,1.05-1.04,1.57-1.57c0.12-0.12,0.15-0.21-0.01-0.37
				l-1.53-1.53c-0.14-0.14-0.23-0.14-0.37,0c-0.17,0.17-0.35,0.34-0.52,0.52l-0.26,0.26l-0.76,0.76c-0.17,0.17-0.14,0.26-0.02,0.38
				C10.83,28.31,11.34,28.83,11.86,29.34z"/>
			<path class="st0" d="M10.82,30.36l-1.53-1.53c-0.14-0.14-0.23-0.14-0.37,0C8.75,29,8.57,29.17,8.4,29.35l-0.26,0.26l-0.76,0.76
				c-0.17,0.17-0.14,0.26-0.02,0.38c0.51,0.52,1.02,1.03,1.54,1.54c0.14,0.14,0.23,0.14,0.36,0c0.53-0.52,1.05-1.04,1.57-1.57
				C10.95,30.61,10.98,30.52,10.82,30.36z"/>
			<path class="st0" d="M31.99,9.21c0.14,0.14,0.23,0.14,0.36,0c0.53-0.52,1.05-1.04,1.57-1.57c0.12-0.12,0.15-0.21-0.01-0.37
				c-0.51-0.51-1.02-1.02-1.53-1.53c-0.07-0.07-0.13-0.11-0.19-0.11c-0.06,0-0.11,0.04-0.18,0.1c-0.19,0.19-0.38,0.38-0.57,0.56
				l-0.97,0.98c-0.17,0.17-0.14,0.26-0.02,0.38C30.96,8.19,31.47,8.7,31.99,9.21z"/>
			<path class="st0" d="M29.03,12.17c0.14,0.13,0.23,0.14,0.36,0c0.53-0.52,1.05-1.04,1.57-1.57c0.12-0.12,0.15-0.21-0.01-0.37
				c-0.51-0.51-1.02-1.02-1.53-1.53c-0.07-0.07-0.13-0.11-0.19-0.11c-0.06,0-0.11,0.04-0.18,0.1c-0.19,0.19-0.38,0.38-0.57,0.56
				l-0.97,0.98c-0.17,0.17-0.14,0.26-0.02,0.38C28,11.14,28.52,11.66,29.03,12.17z"/>
			<path class="st0" d="M37.09,22.8c-0.53-0.53-1.05-1.06-1.58-1.58c-0.12-0.12-0.2-0.12-0.32,0c-0.18,0.18-0.36,0.35-0.53,0.53
				l-0.27,0.27l-0.26,0.26c-0.18,0.17-0.35,0.35-0.52,0.53c-0.12,0.12-0.12,0.2,0,0.32c0.52,0.53,1.05,1.06,1.58,1.58
				c0.16,0.16,0.26,0.07,0.3,0.02c0.55-0.54,1.1-1.08,1.63-1.63C37.15,23.06,37.24,22.96,37.09,22.8z"/>
			<path class="st0" d="M29.31,27.35c-0.04-0.04-0.09-0.07-0.14-0.07c-0.05,0-0.1,0.02-0.17,0.09c-0.53,0.53-1.06,1.05-1.58,1.58
				c-0.12,0.12-0.12,0.22,0,0.34c0.52,0.52,1.04,1.04,1.56,1.56c0.14,0.14,0.22,0.14,0.35,0c0.18-0.18,0.36-0.36,0.54-0.54l0.5-0.5
				c0.18-0.18,0.35-0.35,0.53-0.53c0.13-0.14,0.1-0.22,0.01-0.31C30.39,28.42,29.85,27.88,29.31,27.35z"/>
			<path class="st0" d="M25.59,28.39c0.54-0.53,1.07-1.06,1.59-1.59c0.1-0.1,0.13-0.19-0.01-0.33c-0.19-0.19-0.37-0.38-0.56-0.56
				l-1-1c-0.07-0.07-0.12-0.1-0.17-0.1c-0.05,0-0.1,0.03-0.17,0.1c-0.53,0.52-1.06,1.05-1.58,1.58c-0.13,0.13-0.13,0.21,0,0.33
				l1.56,1.56C25.4,28.52,25.48,28.5,25.59,28.39z"/>
			<path class="st0" d="M38.59,18.14c-0.06-0.06-0.11-0.08-0.16-0.08c-0.05,0-0.1,0.03-0.17,0.09l-1.58,1.58
				c-0.14,0.14-0.11,0.23-0.02,0.32c0.53,0.54,1.06,1.07,1.59,1.59c0.11,0.11,0.2,0.11,0.31,0c0.53-0.53,1.07-1.06,1.6-1.6
				c0.12-0.12,0.12-0.21,0-0.33C39.65,19.19,39.12,18.66,38.59,18.14z"/>
			<path class="st0" d="M24.09,29.56c-0.53-0.54-1.06-1.07-1.59-1.59c-0.06-0.06-0.11-0.08-0.16-0.08c-0.06,0-0.11,0.04-0.14,0.07
				c-0.55,0.53-1.09,1.07-1.62,1.62c-0.07,0.07-0.13,0.17,0.02,0.32l1.58,1.58c0.11,0.11,0.21,0.11,0.31,0.01
				c0.54-0.53,1.08-1.07,1.61-1.61C24.2,29.76,24.2,29.67,24.09,29.56z"/>
			<path class="st0" d="M28.68,25.31c0.53-0.52,1.06-1.05,1.58-1.58c0.12-0.12,0.12-0.21,0.01-0.33c-0.52-0.53-1.05-1.06-1.58-1.58
				c-0.06-0.06-0.11-0.09-0.16-0.09c-0.05,0-0.1,0.03-0.16,0.09l-1.6,1.6c-0.14,0.14-0.09,0.23-0.01,0.31
				c0.53,0.53,1.06,1.07,1.59,1.59C28.45,25.41,28.54,25.45,28.68,25.31z"/>
			<path class="st0" d="M31.76,22.24c0.53-0.53,1.07-1.06,1.6-1.6c0.12-0.12,0.12-0.21,0-0.33l-1.57-1.57
				c-0.07-0.07-0.13-0.1-0.18-0.1c-0.06,0-0.11,0.03-0.16,0.09c-0.53,0.53-1.06,1.05-1.58,1.58c-0.14,0.14-0.1,0.23-0.01,0.33
				c0.53,0.54,1.06,1.07,1.59,1.59C31.54,22.34,31.63,22.37,31.76,22.24z"/>
			<path class="st0" d="M32.41,24.28c-0.06-0.06-0.11-0.08-0.16-0.08c-0.06,0-0.1,0.03-0.14,0.07c-0.55,0.53-1.09,1.07-1.62,1.62
				c-0.09,0.09-0.12,0.18,0.01,0.32c0.19,0.2,0.39,0.39,0.58,0.58l0.41,0.41c0.19,0.19,0.39,0.39,0.58,0.58
				c0.13,0.13,0.22,0.1,0.31,0.01c0.54-0.53,1.08-1.07,1.61-1.61c0.11-0.11,0.11-0.2,0-0.31C33.47,25.34,32.94,24.81,32.41,24.28z"
				/>
			<path class="st0" d="M31.94,15.84c0.1-0.1,0.13-0.18-0.01-0.33l-1.02-1.03c-0.18-0.19-0.37-0.37-0.56-0.55
				c-0.05-0.05-0.11-0.08-0.16-0.08c-0.05,0-0.1,0.02-0.14,0.07c-0.55,0.54-1.08,1.08-1.62,1.62c-0.15,0.15-0.04,0.25-0.01,0.29
				c0.54,0.55,1.08,1.1,1.63,1.63c0.06,0.06,0.15,0.12,0.28-0.02C30.87,16.91,31.41,16.37,31.94,15.84z"/>
			<path class="st0" d="M35.52,3.27c-0.73-0.73-1.69-1.13-2.72-1.13c-1.03,0-1.99,0.4-2.72,1.13L4.9,28.46c-1.5,1.5-1.5,3.94,0,5.43
				l25.19,25.19c0.73,0.73,1.69,1.13,2.72,1.13c1.03,0,1.99-0.4,2.72-1.13L60.72,33.9c1.5-1.5,1.5-3.94,0-5.43L35.52,3.27z
				 M22.4,45.79c-0.02-0.12,0.01-0.22,0.17-0.36c0.35-0.33,0.69-0.67,1.03-1.02l0.45-0.46c0.14-0.14,0.22-0.14,0.35,0
				c0.52,0.51,1.04,1.03,1.55,1.55c0.12,0.12,0.15,0.21-0.01,0.37l-0.49,0.49c-0.33,0.33-0.66,0.66-0.98,0.99
				c-0.15,0.16-0.25,0.18-0.36,0.15L22.4,45.79z M58.35,32.13l-1.01,1.01c-0.18,0.18-0.35,0.36-0.53,0.53
				c-0.14,0.14-0.23,0.14-0.37,0l-1.53-1.53c-0.16-0.16-0.13-0.25-0.01-0.37c0.52-0.53,1.04-1.05,1.57-1.57
				c0.07-0.06,0.12-0.1,0.18-0.1c0.06,0,0.11,0.03,0.18,0.1c0.52,0.51,1.03,1.02,1.54,1.54C58.49,31.87,58.52,31.95,58.35,32.13z
				 M50.45,36.22c0.05-0.05,0.09-0.09,0.14-0.13c0.06-0.05,0.14-0.04,0.21,0.03c0.56,0.55,1.11,1.1,1.66,1.66
				c0.06,0.06,0.07,0.15,0.03,0.21c-0.03,0.04-0.06,0.07-0.12,0.13L39.75,50.73c-0.18,0.15-0.29,0.13-0.46-0.04l-1.46-1.46
				c-0.19-0.19-0.13-0.26-0.04-0.35L50.45,36.22z M43.4,30.94c0.05,0,0.1,0.03,0.16,0.09l1.58,1.58c0.15,0.15,0.08,0.25,0.02,0.32
				c-0.53,0.55-1.07,1.09-1.62,1.62c-0.07,0.07-0.17,0.13-0.3-0.01c-0.53-0.53-1.07-1.06-1.59-1.59c-0.11-0.11-0.11-0.2,0-0.31
				c0.53-0.54,1.07-1.08,1.61-1.61C43.3,30.97,43.35,30.94,43.4,30.94z M39.96,40.5L41,39.46c0.18-0.19,0.37-0.37,0.56-0.55
				c0.06-0.06,0.11-0.08,0.16-0.08c0.05,0,0.11,0.03,0.17,0.09c0.52,0.52,1.05,1.04,1.57,1.57c0.12,0.13,0.12,0.22,0,0.34
				c-0.53,0.53-1.05,1.06-1.58,1.58c-0.15,0.14-0.24,0.09-0.31,0.02c-0.54-0.53-1.08-1.06-1.61-1.6
				C39.87,40.74,39.82,40.64,39.96,40.5z M36.89,43.58c0.53-0.54,1.07-1.08,1.61-1.61c0.05-0.05,0.1-0.08,0.15-0.08
				c0.05,0,0.1,0.02,0.15,0.08c0.54,0.53,1.08,1.06,1.61,1.61c0.09,0.09,0.12,0.18-0.02,0.31l-1.59,1.59
				c-0.12,0.11-0.21,0.11-0.33,0c-0.52-0.52-1.05-1.04-1.57-1.57C36.75,43.76,36.82,43.65,36.89,43.58z M33.79,46.66
				c0.53-0.54,1.07-1.07,1.61-1.61c0.06-0.06,0.11-0.08,0.16-0.08c0.05,0,0.09,0.03,0.13,0.07c0.55,0.54,1.1,1.08,1.63,1.63
				c0.03,0.03,0.14,0.14-0.01,0.29c-0.54,0.54-1.08,1.08-1.62,1.62c-0.1,0.1-0.2,0.09-0.3-0.01c-0.19-0.18-0.37-0.37-0.56-0.55
				l-1.02-1.03C33.66,46.85,33.69,46.76,33.79,46.66z M46.54,37.74l-1.58,1.58c-0.15,0.14-0.24,0.09-0.31,0.02
				c-0.54-0.53-1.08-1.06-1.61-1.61c-0.07-0.07-0.13-0.17,0.01-0.32c0.53-0.53,1.06-1.07,1.59-1.59c0.04-0.04,0.09-0.08,0.16-0.08
				c0.05,0,0.11,0.02,0.17,0.09c0.52,0.52,1.05,1.04,1.57,1.57C46.65,37.5,46.68,37.6,46.54,37.74z M40.3,34.02
				c0.05,0,0.11,0.03,0.19,0.1l1.56,1.56c0.13,0.13,0.13,0.21,0,0.33c-0.53,0.53-1.05,1.06-1.58,1.58c-0.13,0.13-0.2,0.13-0.34,0
				l-1-1c-0.19-0.19-0.38-0.37-0.56-0.56c-0.14-0.14-0.11-0.23-0.01-0.33c0.52-0.54,1.06-1.07,1.59-1.59
				C40.2,34.05,40.25,34.02,40.3,34.02z M38.97,39.08l-1.6,1.6c-0.12,0.12-0.2,0.12-0.32,0c-0.53-0.52-1.06-1.05-1.58-1.58
				c-0.11-0.11-0.11-0.21,0.01-0.33c0.53-0.53,1.05-1.06,1.58-1.58c0.06-0.06,0.12-0.09,0.17-0.09c0.06,0,0.11,0.03,0.16,0.08
				c0.53,0.53,1.07,1.06,1.59,1.6C39.06,38.86,39.1,38.95,38.97,39.08z M35.87,42.17c-0.53,0.53-1.05,1.06-1.58,1.58
				c-0.11,0.11-0.19,0.14-0.34-0.01l-1.57-1.57c-0.12-0.12-0.12-0.21,0-0.33c0.53-0.53,1.06-1.07,1.6-1.6
				c0.06-0.06,0.11-0.09,0.16-0.09c0.05,0,0.1,0.03,0.15,0.08c0.54,0.53,1.07,1.06,1.59,1.59C35.98,41.94,36.01,42.03,35.87,42.17z
				 M32.77,45.26c-0.52,0.52-1.03,1.04-1.55,1.55c-0.14,0.14-0.23,0.14-0.37,0l-1.54-1.54c-0.13-0.13-0.13-0.22,0-0.35
				c0.18-0.18,0.36-0.36,0.54-0.54l0.49-0.49c0.18-0.18,0.35-0.36,0.53-0.53c0.07-0.07,0.12-0.1,0.18-0.1s0.11,0.03,0.18,0.1
				c0.52,0.51,1.03,1.02,1.54,1.54C32.91,45.04,32.91,45.12,32.77,45.26z M49.6,34.69l-0.97,0.98c-0.19,0.19-0.38,0.38-0.57,0.56
				c-0.14,0.14-0.23,0.14-0.37,0c-0.51-0.51-1.02-1.02-1.53-1.53c-0.16-0.16-0.13-0.25-0.01-0.37c0.52-0.53,1.04-1.05,1.57-1.57
				c0.07-0.06,0.12-0.1,0.18-0.1c0.06,0,0.11,0.03,0.18,0.1c0.52,0.51,1.03,1.02,1.54,1.54C49.75,34.44,49.77,34.52,49.6,34.69z
				 M46.34,31.47c-0.55-0.54-1.09-1.08-1.63-1.63c-0.04-0.04-0.13-0.14,0.02-0.29c0.18-0.18,0.36-0.36,0.54-0.54l0.27-0.27
				l0.24-0.24c0.18-0.18,0.36-0.36,0.54-0.54c0.12-0.11,0.21-0.11,0.33,0c0.53,0.52,1.06,1.05,1.58,1.58c0.11,0.11,0.11,0.21,0,0.33
				c-0.53,0.53-1.06,1.06-1.59,1.59C46.53,31.56,46.43,31.57,46.34,31.47z M34.78,51.89c0.52-0.53,1.04-1.05,1.57-1.57
				c0.07-0.06,0.12-0.1,0.18-0.1c0.06,0,0.11,0.03,0.18,0.1c0.52,0.51,1.03,1.02,1.54,1.54c0.12,0.13,0.15,0.21-0.02,0.38
				l-0.97,0.98c-0.19,0.19-0.38,0.38-0.57,0.56c-0.14,0.14-0.23,0.14-0.37,0c-0.51-0.51-1.02-1.02-1.53-1.53
				C34.63,52.1,34.66,52.01,34.78,51.89z M51.95,34.72c0.52-0.53,1.04-1.05,1.57-1.57c0.07-0.06,0.12-0.1,0.18-0.1
				c0.06,0,0.11,0.03,0.18,0.1c0.52,0.51,1.03,1.02,1.54,1.54c0.12,0.13,0.15,0.21-0.02,0.38l-1.02,1.02
				c-0.17,0.17-0.34,0.34-0.52,0.52c-0.14,0.14-0.23,0.14-0.37,0l-1.53-1.53C51.8,34.93,51.83,34.84,51.95,34.72z M25.62,48.55
				c0.82-0.81,0.93-0.92,1.26-1.26l0.81-0.81c0.19-0.19,0.25-0.19,0.45,0.01l1.46,1.46c0.18,0.18,0.18,0.25,0,0.44l-0.79,0.79
				c-0.35,0.35-0.44,0.44-1.26,1.27c-0.14,0.15-0.24,0.18-0.34,0.16l-1.73-1.73C25.46,48.77,25.49,48.68,25.62,48.55z M28.72,51.63
				c1.18-1.17,1.56-1.55,2.26-2.25l1.17-1.17c0.2-0.2,0.26-0.2,0.46,0l1.45,1.45c0.2,0.2,0.2,0.25-0.01,0.46l-1.13,1.13
				c-0.72,0.72-1.1,1.1-2.28,2.29c-0.15,0.15-0.24,0.17-0.35,0.13l-1.7-1.7C28.55,51.87,28.57,51.77,28.72,51.63z M31.82,54.85
				c0.52-0.53,1.04-1.05,1.57-1.57c0.07-0.06,0.12-0.1,0.18-0.1c0.06,0,0.11,0.03,0.18,0.1c0.52,0.51,1.03,1.02,1.54,1.54
				c0.12,0.13,0.15,0.21-0.02,0.38l-0.97,0.98c-0.19,0.19-0.38,0.38-0.57,0.56c-0.14,0.14-0.23,0.14-0.37,0
				c-0.51-0.51-1.02-1.02-1.53-1.53C31.67,55.06,31.7,54.97,31.82,54.85z M55.21,29.12c-1.39,1.38-1.89,1.88-2.81,2.8l-1.22,1.22
				c-0.15,0.15-0.22,0.16-0.24,0.16c-0.02,0-0.09-0.01-0.24-0.16l-1.5-1.5c-0.13-0.13-0.13-0.21,0-0.34l4.2-4.2
				c0.05-0.05,0.1-0.08,0.17-0.08c0.02,0,0.05,0,0.09,0.01l1.73,1.73C55.4,28.86,55.36,28.96,55.21,29.12z M52.06,25.93
				c-0.91,0.9-1.06,1.05-1.48,1.47l-0.87,0.87c-0.17,0.17-0.25,0.17-0.41,0l-1.47-1.47c-0.2-0.2-0.2-0.26-0.01-0.45l0.9-0.9
				c0.4-0.4,0.56-0.56,1.44-1.45c0.11-0.11,0.19-0.15,0.27-0.15c0.02,0,0.04,0,0.06,0.01l1.73,1.73
				C52.24,25.7,52.21,25.79,52.06,25.93z M49.02,22.94c-1.27,1.26-1.3,1.29-1.61,1.61l-1.29,1.29c-0.22,0.22-0.26,0.22-0.47,0
				l-1.46-1.46c-0.18-0.18-0.18-0.24,0-0.42l2.98-2.99c0.09-0.09,0.17-0.13,0.26-0.13c0.01,0,0.03,0,0.04,0l1.74,1.74
				C49.22,22.68,49.18,22.78,49.02,22.94z M44.51,27.38c-0.19,0.19-0.38,0.38-0.57,0.57l-1.03,1.03c-0.14,0.14-0.25,0.07-0.32,0
				c-0.54-0.53-1.07-1.06-1.59-1.59c-0.1-0.11-0.1-0.21,0-0.32c0.53-0.54,1.07-1.07,1.6-1.61c0.05-0.05,0.11-0.08,0.16-0.08
				s0.11,0.03,0.16,0.08c0.53,0.53,1.06,1.06,1.59,1.59C44.62,27.17,44.62,27.27,44.51,27.38z M41.43,30.45
				c-0.18,0.19-0.37,0.37-0.55,0.55l-1.06,1.05c-0.16,0.16-0.26,0.06-0.3,0.02c-0.55-0.53-1.09-1.07-1.62-1.62
				c-0.06-0.06-0.13-0.16,0.01-0.3c0.54-0.54,1.07-1.08,1.61-1.61c0.03-0.03,0.09-0.08,0.16-0.08c0.04,0,0.09,0.02,0.14,0.07
				c0.54,0.53,1.08,1.07,1.61,1.61C41.55,30.27,41.49,30.38,41.43,30.45z M38.32,33.55c-0.53,0.53-1.05,1.06-1.58,1.58
				c-0.14,0.14-0.24,0.09-0.31,0.02c-0.54-0.53-1.08-1.06-1.61-1.61c-0.09-0.09-0.12-0.18,0.01-0.31c0.18-0.19,0.37-0.37,0.55-0.56
				l0.48-0.48c0.18-0.18,0.36-0.36,0.54-0.54c0.07-0.07,0.12-0.1,0.18-0.1c0.05,0,0.11,0.03,0.18,0.1c0.52,0.52,1.04,1.04,1.56,1.56
				C38.44,33.33,38.44,33.43,38.32,33.55z M35.25,36.6c-0.53,0.55-1.07,1.09-1.62,1.62c-0.08,0.07-0.17,0.13-0.3-0.01
				c-0.53-0.53-1.07-1.06-1.59-1.59c-0.11-0.11-0.11-0.2,0-0.31c0.53-0.54,1.07-1.08,1.61-1.61c0.05-0.05,0.1-0.08,0.15-0.08
				c0.05,0,0.1,0.03,0.16,0.09c0.2,0.19,0.39,0.39,0.58,0.58l0.41,0.41c0.19,0.19,0.39,0.39,0.58,0.58
				C35.37,36.43,35.34,36.51,35.25,36.6z M32.14,39.69c-0.17,0.18-0.35,0.35-0.52,0.53l-0.53,0.53c-0.18,0.18-0.36,0.36-0.53,0.53
				c-0.12,0.12-0.2,0.12-0.32,0c-0.53-0.53-1.06-1.05-1.58-1.58c-0.16-0.16-0.06-0.26-0.02-0.3c0.54-0.55,1.08-1.1,1.63-1.63
				c0.03-0.03,0.07-0.07,0.13-0.07c0.05,0,0.1,0.02,0.17,0.09c0.53,0.52,1.06,1.05,1.58,1.58C32.26,39.49,32.26,39.57,32.14,39.69z
				 M29.05,42.78l-1.58,1.58c-0.12,0.12-0.21,0.12-0.32,0c-0.53-0.53-1.06-1.05-1.58-1.58c-0.11-0.11-0.11-0.21,0-0.33
				c0.53-0.53,1.06-1.07,1.6-1.6c0.05-0.05,0.11-0.08,0.16-0.08s0.1,0.03,0.16,0.08c0.53,0.53,1.07,1.06,1.59,1.59
				C29.16,42.55,29.19,42.63,29.05,42.78z M47.29,16.45L18.07,45.66L5.6,33.19c-1.11-1.11-1.11-2.91,0-4.02L30.8,3.98
				c0.55-0.55,1.28-0.83,2.01-0.83s1.45,0.28,2.01,0.83L47.29,16.45z"/>
		</g>
	</g>
</g>
</svg>
